<svg id="Layer_1" data-name="Layer 1" xmlns="http://www.w3.org/2000/svg" xmlns:xlink="http://www.w3.org/1999/xlink" viewBox="0 0 590.44 383.64"><defs><style>.cls-1,.cls-5{fill:#101730;}.cls-1{stroke:#0f1732;stroke-miterlimit:22.93;stroke-width:0.22px;}.cls-1,.cls-10,.cls-11,.cls-12,.cls-13,.cls-14,.cls-15,.cls-16,.cls-17,.cls-2,.cls-21,.cls-22,.cls-23,.cls-26,.cls-29,.cls-3,.cls-30,.cls-31,.cls-32,.cls-33,.cls-34,.cls-35,.cls-36,.cls-38,.cls-39,.cls-4,.cls-40,.cls-41,.cls-42,.cls-43,.cls-44,.cls-45,.cls-46,.cls-47,.cls-48,.cls-49,.cls-5,.cls-50,.cls-6,.cls-7,.cls-8,.cls-9{fill-rule:evenodd;}.cls-2{fill:#cec9d0;}.cls-19,.cls-3{fill:#fff;}.cls-4{fill:#e8685b;}.cls-6{fill:#3e4255;}.cls-7{fill:#555b6c;}.cls-8{fill:#f3ae84;}.cls-9{fill:#ed9172;}.cls-10,.cls-28{fill:#0f1732;}.cls-11{fill:#0d101a;}.cls-12{fill:#171c39;}.cls-13{fill:#c9c4d1;}.cls-14{fill:#1c2344;}.cls-15{fill:#0f1936;}.cls-16,.cls-27{fill:#3a3e5d;}.cls-17{fill:#0a0b12;}.cls-18,.cls-23{fill:#e2e1e7;}.cls-20{fill:#888284;}.cls-21{fill:#8e8b8c;}.cls-22,.cls-24{fill:#adabbb;}.cls-25{fill:#807d7f;}.cls-26{fill:#989898;}.cls-29{fill:#dff0f2;}.cls-30{fill:#929596;}.cls-31{fill:#a2a3a4;}.cls-32{fill:#919091;}.cls-33{fill:#818484;}.cls-34{fill:#8d8f94;}.cls-35{fill:#959596;}.cls-36{fill:#939499;}.cls-37{fill:#a8a6b5;}.cls-38{fill:#9692a0;}.cls-39{fill:#f0eef0;}.cls-40{fill:#d2cfd7;}.cls-41{fill:#979394;}.cls-42{fill:#b0aeaf;}.cls-43{fill:#4a4f6b;}.cls-44{fill:url(#linear-gradient);}.cls-45{fill:url(#linear-gradient-2);}.cls-46{fill:url(#linear-gradient-3);}.cls-47{fill:url(#linear-gradient-4);}.cls-48{fill:url(#linear-gradient-5);}.cls-49{fill:url(#linear-gradient-6);}.cls-50{fill:url(#linear-gradient-7);}</style><linearGradient id="linear-gradient" x1="273.67" y1="121.35" x2="331.44" y2="121.35" gradientUnits="userSpaceOnUse"><stop offset="0" stop-color="#8b5da7"/><stop offset="1" stop-color="#407cbf"/></linearGradient><linearGradient id="linear-gradient-2" x1="280.37" y1="105.05" x2="324.74" y2="105.05" xlink:href="#linear-gradient"/><linearGradient id="linear-gradient-3" x1="280.37" y1="109.74" x2="324.74" y2="109.74" xlink:href="#linear-gradient"/><linearGradient id="linear-gradient-4" x1="280.37" y1="114.43" x2="324.74" y2="114.43" xlink:href="#linear-gradient"/><linearGradient id="linear-gradient-5" x1="280.37" y1="120.79" x2="312.67" y2="120.79" xlink:href="#linear-gradient"/><linearGradient id="linear-gradient-6" x1="280.37" y1="125.88" x2="298.68" y2="125.88" xlink:href="#linear-gradient"/><linearGradient id="linear-gradient-7" x1="301.45" y1="125.88" x2="308.62" y2="125.88" xlink:href="#linear-gradient"/></defs><path class="cls-1" d="M409.06,219.35a28.44,28.44,0,0,1,11.68,8.41c2.91,3.54,38.54,71.81,40.83,76.25s2.29,15.68-3.11,22.59c-2.1,2.69-8.12,10.21-14.71,18.39H422.4c7.75-11.63,17.88-26.84,18.6-28.06,1.19-2,1.78-3.94-.38-7.32s-30.7-38.16-30.7-38.16S395.9,232.24,409.06,219.35Z" transform="translate(-2.25)"/><path class="cls-2" d="M371.58,213.85s35.93,5.11,37.48,5.5,4.17,4,5.58,6.43,3.08,37.51,3.88,47.33-2.36,52.64-1.42,64.14c.16,1.9.45,4.59.83,7.74H310.45c-1.38-12.71-11-52.5-11.75-62.06-.8-9.82-4.88-44.69-3.88-47.33s3-6.63,4.47-7.26,36.5-11.55,36.5-11.55l18,2Z" transform="translate(-2.25)"/><path class="cls-3" d="M371.58,213.85l5.94.85a5.24,5.24,0,0,1-1.23,2.44c-14,16-28.23,17.17-44.61,3.66a5.29,5.29,0,0,1-1.62-2.22l5.73-1.79,18,2Z" transform="translate(-2.25)"/><path class="cls-4" d="M365.29,179.24l.31,8.95s1.5,18.25,1.72,21c.11,1.33,1.66,3.15,4.26,4.63-11.75,13.47-22,14.31-35.79,2.94,2.32-1.89,3.55-3.93,3.44-5.27-.22-2.77-1.72-21-1.72-21l-1.15-8.87s7.21.56,14.69,1.57C358.27,181,365.29,179.24,365.29,179.24Z" transform="translate(-2.25)"/><path class="cls-5" d="M374.55,214.28s-4.16,17.95-4.46,21.61-5.19,40.44-4.68,46.65c.23,2.83,5.85,31.58,12,62.45h48.95c-1.2-7.52-2.23-14-2.78-17.67-2-13.18-3.33-40.56-2.89-57.47s-3.77-42.29-4.27-44.69-5.3-5.42-6.79-6Z" transform="translate(-2.25)"/><path class="cls-6" d="M369.19,243.57c-1.48,12.12-4.17,34.28-3.78,39,0,0,23.81-25.92,23.45-28.48s-10.05-21.62-10.05-21.62S374.64,237.22,369.19,243.57Z" transform="translate(-2.25)"/><path class="cls-7" d="M373.35,214.11s1.06-1,1.43-1,6.84,2.16,6.84,2.16,9.43,14.81,9.58,16.71S368.06,253,368.06,253l2.06-17.43s3.38-17,4.43-21.24Z" transform="translate(-2.25)"/><path class="cls-5" d="M299.7,228.31a28.47,28.47,0,0,0-10.15,10.2c-2.3,4-26.34,77.13-27.88,81.88s.3,15.85,6.76,21.79l3.09,2.81h26.65c-7.06-7.56-13.45-14.43-14.09-15.2-1.5-1.78-2.4-3.6-.82-7.29s24.07-42.64,24.07-42.64S314.79,238.89,299.7,228.31Z" transform="translate(-2.25)"/><path class="cls-5" d="M332.93,217.69s7,17,7.92,20.59,11.7,39.06,12.21,45.28c.23,2.76-.59,30.79-1.57,61.43H303.06c0-3.19-.05-5.88-.07-7.79-.18-13.33-3.33-40.56-6.51-57.17s-3.16-42.34-3.06-44.8,4.34-6.21,5.72-7Z" transform="translate(-2.25)"/><path class="cls-6" d="M343,245.72c3.42,11.72,9.69,33.14,10.07,37.84,0,0-27.71-21.71-27.77-24.29s6.39-23,6.39-23S336.57,240.34,343,245.72Z" transform="translate(-2.25)"/><path class="cls-7" d="M334.08,217.33a5.26,5.26,0,0,0-1.57-.73c-.38,0-6.4,3.24-6.4,3.24s-6.88,16.15-6.73,18,26.25,16.91,26.25,16.91l-4.88-16.86s-6.1-16.26-7.82-20.24Z" transform="translate(-2.25)"/><path class="cls-4" d="M320.88,184.69c-.18.05-.36.09-.53.15h0a7.4,7.4,0,1,0,6.28.92c.39,2.15.29,4.87-2.46,5.4l-.31-4.25A2.55,2.55,0,0,0,320.88,184.69Z" transform="translate(-2.25)"/><path class="cls-4" d="M374,179.85l.54,0h0a7.4,7.4,0,1,1-6,2c0,2.19.6,4.85,3.4,4.87l-.47-4.24A2.54,2.54,0,0,1,374,179.85Z" transform="translate(-2.25)"/><path class="cls-8" d="M344.09,145.5h0a25.38,25.38,0,0,0-22.9,27.5l2.09,22.93a25.38,25.38,0,0,0,27.5,22.9h0a25.39,25.39,0,0,0,22.9-27.5l-2.09-22.92A25.38,25.38,0,0,0,344.09,145.5Z" transform="translate(-2.25)"/><path class="cls-9" d="M322.75,161.72A25.06,25.06,0,0,0,321.19,173l2.09,22.93a25.38,25.38,0,0,0,25.09,23c-14.65-1.13-17.36-18.44-18.48-27.56s2.29-11.16,3.65-11.61,22.64-4,27.34-4.53S368,177.3,368,177.3l2-2.88-1.9-6.16s1.62.06,3.54,0a25.81,25.81,0,0,0-.93-4.77,40.13,40.13,0,0,1-8.32-3.75c-5.61-3.62-32.41.91-36.75.91A6.8,6.8,0,0,0,322.75,161.72Z" transform="translate(-2.25)"/><path class="cls-10" d="M370,180.57s.16,1.68.3,3.25,1.76,3.17,2.95,3.06l-.32-3.55a3.55,3.55,0,0,1,3.5-3c8.88-12.3,5.92-30.29-5.52-38.71s-34.24-6.95-38.09-5.26-7.33,8.8-7.33,8.8-3.64-2.7-6.63-.85-11.65,22.53-11.2,27.47,10.89,13.83,10.89,13.83a3.55,3.55,0,0,1,4,2.28l.32,3.55c1.2-.11,2.49-2,2.35-3.55s-.3-3.25-.3-3.25l.34-.19c3.05-2,2.45-8.05,2.45-8.05l-2.82-3.94,5.59-7.36,6.43-2.11,14.61.56s17.23,2.14,15.73,7.15S370,180.57,370,180.57Z" transform="translate(-2.25)"/><path class="cls-11" d="M370,180.57c.18,1.93,1.47,10.55,3.72,10.35,6.7-14.12,12.89-28.86,2.91-43.33-1.18,9.31-10.45,15-19.74,16.94,4.92,1.07,11.28,3.08,10.34,6.21-1.51,5,2.77,9.83,2.77,9.83Zm-61.7-13.09a14.54,14.54,0,0,0-.64,4.34c.34,3.8,13,22.16,15.81,26.33,1.46-.13,1.66-11,1.43-13.47l.34-.19c3.05-2,2.45-8.05,2.45-8.05l-2.82-3.94,5.59-7.36,6.14-2c-3.09-1.24-4-2.55-4-2.55C320,173.4,312.59,172.7,308.32,167.48Z" transform="translate(-2.25)"/><path class="cls-10" d="M318.77,181s-10.6-23,10.73-26.91c0,0,5.64-11.15,16.95-8.35s18.39,2.72,23.46-2.28c0,0,2.91,5.47-.62,10.26,10.7,8.31,7,18.95,2.61,24.7-1.76-11.91-33.14,1.35-37.24-10.1C334.25,179.22,322.78,176.5,318.77,181Z" transform="translate(-2.25)"/><path class="cls-11" d="M318.77,181a33.34,33.34,0,0,1-2.55-10c4.12-.39,9.47-3.35,16.42-10.38,0,0,2.83,4.17,15.93,4.71,8,.32,18.07-2.62,23.77-8.75,6.82,7.76,3.45,16.74-.44,21.85-1.76-11.91-33.14,1.35-37.24-10.1C334.25,179.22,322.78,176.5,318.77,181Z" transform="translate(-2.25)"/><path class="cls-10" d="M433.07,217.23l-3.35,29.49s5.07,69,7.56,98.27h37.66l.83-117.53Z" transform="translate(-2.25)"/><path class="cls-10" d="M453,242.8l-1.66,10.43,3.3,91.76h45.91c.77-6.35,1.46-11.78,2-15.69,3.45-24.14,4.63-57.69,4.61-65.63S498,244,494.85,243.09,453,242.8,453,242.8Z" transform="translate(-2.25)"/><path class="cls-12" d="M437.69,101.12s-1.57-2.92-2.81-2.37-42.81,61.71-44.22,67-.82,14.6,7.22,27.54,25.26,44.73,25.87,45.42,10-5.7,11-7.48c0,0,.41-.58-.19-1.77s-21.07-49.67-22.37-53.15,35.17-46.63,36.91-50.09S457.56,104.64,437.69,101.12Z" transform="translate(-2.25)"/><path class="cls-13" d="M471,83.6,452.9,96.53s-12.91,50.56-13,52.86-5,30.18-5,30.18,18.1,7.19,20.69.29,31.61-56.32,33.05-64.08-2-26.15-3.74-28.16S471,83.6,471,83.6Z" transform="translate(-2.25)"/><path class="cls-12" d="M452.78,92.11s-16.39,5.77-17.9,6.64-10.36,33.13-11.08,36.14,4,58.34,4,63.22-6.18,65.95-6.32,66.95a1.81,1.81,0,0,0,1.87,2.16c1.43,0,17.53-30.32,18.82-33.76S439.3,178,439.3,178l10.94-74.43Z" transform="translate(-2.25)"/><path class="cls-14" d="M501.45,100.29S525,124,525.81,125.41,502.25,207.74,502,211.48s12.07,58.76,12.5,60.2a2.76,2.76,0,0,1-.36,1.43,5.32,5.32,0,0,1-1.94,1.73c-.51.36-58-8.91-62.57-11.78s-14.51-47.56-14.51-53.6,3.47-29.13,3.47-29.13l28.28-47.88S487.27,101.82,501.45,100.29Z" transform="translate(-2.25)"/><path class="cls-15" d="M497.73,96.57S525,124,525.81,125.41,502.25,207.74,502,211.48s12.07,58.76,12.5,60.2a2.76,2.76,0,0,1-.36,1.43,5.32,5.32,0,0,1-1.94,1.73c-.26.18-15.55-2.17-31-4.9,13.39-19.29,12.69-51.26,11.52-53.2-1.36-2.27-8.51-7.15-7.42-7.52s8.41-.54,9-2.35,10.86-59.09,10.86-59.09l6.88-4.64s3.08-22.28.91-25.54S496.39,102,496.28,101.92C498.06,101.05,496.08,96.75,497.73,96.57Z" transform="translate(-2.25)"/><path class="cls-16" d="M522.53,121.8a41.53,41.53,0,0,1,6,6c2.46,3.21,33.12,67.31,33.75,73.32s-1.61,16.12-12.66,28.92-35.38,44.62-36.17,45.27-10-8-10.78-10.09c0,0-.35-.71.52-1.91S534.86,212.6,536.88,209s-30.46-57.15-31.77-61.23S500.15,122.23,522.53,121.8Z" transform="translate(-2.25)"/><path class="cls-9" d="M488.2,61.09c.17,9-2.15,18.21-1.57,27.18.12,1.83,1,2.44,3.26,3.91,3.12,4.65-5.43,19.36-11.05,20.24-.37.06-9.54-7.13-16-8.79-3.33-.86-6.07,3.39-6.32,3.21-1.35-1,1.55-8.59.61-11.48,1.14-.3,2.16-2.85,3-3.6,5.25-4.85,3.54-17-.77-21.52C456.09,66.82,488.2,61.09,488.2,61.09Z" transform="translate(-2.25)"/><path class="cls-3" d="M494.13,95.69c-.72,2-18.09,25.21-18.09,25.21s-.62.83-1.53-.22-11.61-16-11.61-16L486.67,87l-.54-4.08C486.48,82.53,494.86,93.61,494.13,95.69Z" transform="translate(-2.25)"/><path class="cls-3" d="M462.28,88.15s0,0-.09,0c-8.13-.57-9.36,22.45-7.93,27,0,0,4.94-7.53,8.33-10.54C464.13,103.17,459.32,92.77,462.28,88.15Z" transform="translate(-2.25)"/><path class="cls-16" d="M492.08,89.07s-30.39,37.67-32.54,40.83-18.68,42.1-21,50.43c0,0,25.43-31.75,29-34.62s16.89-13.94,16.89-13.94a1.91,1.91,0,0,0,.18-1.22c-.18-.5-3.88-8.87-3.88-8.87s11.06,1.65,12.07,1.58,6-24.76,6.11-25.47S492.08,89.07,492.08,89.07Z" transform="translate(-2.25)"/><path class="cls-16" d="M462.34,88.1s-8,1.86-9.33,2.58-11.49,17.67-11.78,19.11a.91.91,0,0,0,.43,1,28.46,28.46,0,0,1,2.91,1.83c.22.22-3.55.65-3.55.65s-.43.16-.36.82S439.3,178,439.3,178s12.54-70,14.39-74.57,6.85-11.89,6.85-11.89Z" transform="translate(-2.25)"/><path class="cls-4" d="M448.67,48.06a7.17,7.17,0,1,1-7.12,7.2A7.16,7.16,0,0,1,448.67,48.06Z" transform="translate(-2.25)"/><path class="cls-4" d="M496.5,47.78A7.17,7.17,0,1,1,489.37,55,7.16,7.16,0,0,1,496.5,47.78Z" transform="translate(-2.25)"/><path class="cls-8" d="M470.11,11.22h0c13.5-.08,24.61,11.9,24.68,26.62l.13,24.33C495,76.89,484,89,470.51,89.08h0c-13.5.08-24.61-11.89-24.68-26.62l-.13-24.32C445.63,23.42,456.61,11.3,470.11,11.22Z" transform="translate(-2.25)"/><path class="cls-9" d="M493.84,30.61a28.6,28.6,0,0,1,1,7.23l.13,24.33C495,75.7,485.71,87,473.72,88.83l-2.1.22h0c13.4-1.33,16.24-18.94,16.24-24.25V51c0-13-7.21-14.39-12.14-14.39H451.23a4.77,4.77,0,0,0-4.3,2.91l-1.22-.93v-.46a27.87,27.87,0,0,1,7.92-19.79c12.29,2.4,32.73,6.48,34.14,7.36C488.52,26.19,491,28.24,493.84,30.61Z" transform="translate(-2.25)"/><path class="cls-17" d="M442.36,30.83l4.41,4.42s2.11-8.23,19.89-5.69S450.27,13,446.4,15.12,439.15,23.32,442.36,30.83Z" transform="translate(-2.25)"/><path class="cls-10" d="M488.54,31.22s-17.49,1.92-26.4-3.73-16.44-8.28-18.72-5.21c-2.17,2.92,6.54,10.79,3,24.17-.2.72-.65,13.1-.92,13.86-.08-4.84-1.64-17.22-3.24-20.31-4.79-9.25-12.28-16.2-2.55-30.06,6-8.51,16.11-12.5,20.83-8.19,15.35,14,36.49-4.2,36.62,19.05,0,0,11.39,3.83.81,27.13a3,3,0,0,0-3.13,3.36L495,63.73C486.42,63.73,486.25,41.31,488.54,31.22Z" transform="translate(-2.25)"/><rect class="cls-18" x="474.41" y="241.92" width="58.21" height="93.82" rx="4.35"/><rect class="cls-19" x="525.7" y="241.92" width="47.37" height="93.82" rx="3.66"/><path class="cls-3" d="M466.75,277.55H518c0-9.19,9.9-10.2,9.9-10.2H476.65S466.75,268.36,466.75,277.55Z" transform="translate(-2.25)"/><rect class="cls-20" x="471.54" y="320.64" width="58.81" height="24.35" rx="2.87"/><path class="cls-21" d="M528.06,320.64h11.66c.26,0,3.1.11,4.7,3.58,1.67,3.64,1.49,7.29,6.44,7.29H553c5,0,4.82-3.73,6.45-7.29s4.43-3.57,4.7-3.58H575.2a2.87,2.87,0,0,1,2.86,2.87v18.62A2.87,2.87,0,0,1,575.2,345H528.06a2.87,2.87,0,0,1-2.86-2.86V323.51A2.87,2.87,0,0,1,528.06,320.64Z" transform="translate(-2.25)"/><path class="cls-3" d="M466.75,309.7H518c0-9.2,9.9-10.21,9.9-10.21H476.65S466.75,300.5,466.75,309.7Z" transform="translate(-2.25)"/><path class="cls-22" d="M583.66,294.37H537c0-9.19-9.07-10.2-9.07-10.2h46.65S583.66,285.18,583.66,294.37Z" transform="translate(-2.25)"/><path class="cls-23" d="M535.37,252.11h35.75a1.58,1.58,0,0,1,1.58,1.58h0a1.58,1.58,0,0,1-1.58,1.58H535.37a1.58,1.58,0,0,1-1.58-1.58h0A1.58,1.58,0,0,1,535.37,252.11Z" transform="translate(-2.25)"/><path class="cls-23" d="M535.37,269.48h35.75a1.58,1.58,0,0,1,1.58,1.58h0a1.58,1.58,0,0,1-1.58,1.57H535.37a1.58,1.58,0,0,1-1.58-1.57h0A1.58,1.58,0,0,1,535.37,269.48Z" transform="translate(-2.25)"/><path class="cls-23" d="M535.37,305.75h35.75a1.57,1.57,0,0,1,1.58,1.57h0a1.58,1.58,0,0,1-1.58,1.58H535.37a1.58,1.58,0,0,1-1.58-1.58h0A1.57,1.57,0,0,1,535.37,305.75Z" transform="translate(-2.25)"/><path class="cls-22" d="M484.23,250.84h34.54a1.57,1.57,0,0,1,1.58,1.57h0a1.58,1.58,0,0,1-1.58,1.58H484.23a1.58,1.58,0,0,1-1.57-1.58h0A1.57,1.57,0,0,1,484.23,250.84Z" transform="translate(-2.25)"/><rect class="cls-24" x="480.41" y="289.95" width="37.69" height="3.15" rx="1.58"/><path class="cls-22" d="M484.23,315h34.54a1.58,1.58,0,0,1,1.58,1.58h0a1.58,1.58,0,0,1-1.58,1.57H484.23a1.58,1.58,0,0,1-1.57-1.57h0A1.58,1.58,0,0,1,484.23,315Z" transform="translate(-2.25)"/><rect class="cls-18" x="450.75" y="282.62" width="35.23" height="56.78" rx="2.63"/><path class="cls-19" d="M484,282.62h24.24a2.21,2.21,0,0,1,2.21,2.21v52.35a2.22,2.22,0,0,1-2.22,2.22H484a2.22,2.22,0,0,1-2.22-2.22V284.83A2.22,2.22,0,0,1,484,282.62Z"/><path class="cls-3" d="M447,304.18h31c0-5.56,6-6.18,6-6.18H453S447,298.62,447,304.18Z" transform="translate(-2.25)"/><rect class="cls-25" x="449.02" y="330.26" width="35.59" height="14.74" rx="1.73"/><path class="cls-26" d="M484.11,330.26h7.06a3.3,3.3,0,0,1,2.84,2.17c1,2.2.9,4.4,3.9,4.4h1.29c3,0,2.92-2.25,3.9-4.4a3.23,3.23,0,0,1,2.84-2.17h6.7a1.74,1.74,0,0,1,1.73,1.73v11.27a1.74,1.74,0,0,1-1.73,1.73H484.11a1.74,1.74,0,0,1-1.73-1.73V332A1.74,1.74,0,0,1,484.11,330.26Z" transform="translate(-2.25)"/><path class="cls-3" d="M447,323.63h31c0-5.56,6-6.17,6-6.17H453S447,318.07,447,323.63Z" transform="translate(-2.25)"/><path class="cls-22" d="M517.76,314.36H489.53c0-5.56-5.49-6.18-5.49-6.18h28.23S517.76,308.8,517.76,314.36Z" transform="translate(-2.25)"/><path class="cls-23" d="M488.53,288.78h21.64a1,1,0,0,1,.95,1h0a1,1,0,0,1-.95.95H488.53a1,1,0,0,1-.95-.95h0A1,1,0,0,1,488.53,288.78Z" transform="translate(-2.25)"/><path class="cls-23" d="M488.53,299.3h21.64a1,1,0,0,1,.95.95h0a1,1,0,0,1-.95.95H488.53a1,1,0,0,1-.95-.95h0A1,1,0,0,1,488.53,299.3Z" transform="translate(-2.25)"/><path class="cls-23" d="M488.53,321.24h21.64a1,1,0,0,1,.95,1h0a1,1,0,0,1-.95.95H488.53a1,1,0,0,1-.95-.95h0A1,1,0,0,1,488.53,321.24Z" transform="translate(-2.25)"/><rect class="cls-24" x="454.39" y="288.01" width="22.81" height="1.91" rx="0.95"/><rect class="cls-24" x="454.39" y="311.68" width="22.81" height="1.91" rx="0.95"/><path class="cls-22" d="M457.59,326.83h20.9a1,1,0,0,1,.95.95h0a1,1,0,0,1-.95,1h-20.9a1,1,0,0,1-1-1h0A1,1,0,0,1,457.59,326.83Z" transform="translate(-2.25)"/><path class="cls-10" d="M119.67,205.46l41,.2a1,1,0,0,1,1,1v4.28a1,1,0,0,1-1,1l-41-.19a1,1,0,0,1-1-1v-4.29a1,1,0,0,1,1-1Zm40,2.15-39-.19v2.33l39,.19Z" transform="translate(-2.25)"/><path class="cls-10" d="M65.83,266.69,120,205a1,1,0,0,1,1.38-.1l3.22,2.83a1,1,0,0,1,.1,1.38l-54.14,61.7a1,1,0,0,1-1.38.09l-3.23-2.83a1,1,0,0,1-.09-1.38Zm55-59.67L68,267.24l1.75,1.54,52.85-60.22Z" transform="translate(-2.25)"/><path class="cls-16" d="M120.22,203.25a5.46,5.46,0,1,1-4.73,6.1A5.46,5.46,0,0,1,120.22,203.25Z" transform="translate(-2.25)"/><path class="cls-10" d="M65.8,267l38.06,72.72a1,1,0,0,0,1.32.42l3.8-2a1,1,0,0,0,.42-1.32L71.33,264.09a1,1,0,0,0-1.32-.41l-3.8,2A1,1,0,0,0,65.8,267Zm39.34,70.95L68,266.94l2.07-1.08,37.16,71Z" transform="translate(-2.25)"/><path class="cls-16" d="M103.69,341.46a5.46,5.46,0,1,0-3.15-7A5.47,5.47,0,0,0,103.69,341.46Z" transform="translate(-2.25)"/><path class="cls-16" d="M68.91,261.72a5.46,5.46,0,1,1-4.73,6.1A5.46,5.46,0,0,1,68.91,261.72Z" transform="translate(-2.25)"/><rect class="cls-27" x="47.48" y="336.83" width="89.84" height="13.78" rx="6.89"/><rect class="cls-28" x="74.57" y="336.83" width="89.84" height="13.78" rx="6.89"/><path class="cls-3" d="M151.83,219.45h20a10.6,10.6,0,0,0,10.57-10.57H141.26A10.59,10.59,0,0,0,151.83,219.45Z" transform="translate(-2.25)"/><path class="cls-29" d="M152.21,217.34h12a6.37,6.37,0,0,0,6.36-6.35H145.86A6.37,6.37,0,0,0,152.21,217.34Z" transform="translate(-2.25)"/><path class="cls-16" d="M145.09,204h33.53a8.11,8.11,0,0,1,8.08,8.09H137A8.11,8.11,0,0,1,145.09,204Z" transform="translate(-2.25)"/><path class="cls-17" d="M145.09,204h15.33a8.11,8.11,0,0,1,8.09,8.09H137A8.11,8.11,0,0,1,145.09,204Z" transform="translate(-2.25)"/><path class="cls-30" d="M194.06,332.63H156.93a5.55,5.55,0,0,0,0,11.1h37.13a5.55,5.55,0,0,0,0-11.1Z" transform="translate(-2.25)"/><path class="cls-3" d="M111,333.27h47.49a4.92,4.92,0,0,1,4.9,4.91h0a4.92,4.92,0,0,1-4.9,4.9H111Z" transform="translate(-2.25)"/><path class="cls-31" d="M111,332.63a.65.65,0,0,0,0,1.29h47.49a4.26,4.26,0,0,1,0,8.51H111a.65.65,0,0,0,0,1.3h47.49a5.55,5.55,0,0,0,0-11.1Z" transform="translate(-2.25)"/><path class="cls-32" d="M192.35,338.18a5.57,5.57,0,0,0-5.55-5.55h4.83a5.55,5.55,0,0,1,0,11.1H186.8a5.57,5.57,0,0,0,5.55-5.55Z" transform="translate(-2.25)"/><path class="cls-33" d="M185.72,337.91a5.35,5.35,0,0,0-1.5-3.73,5,5,0,0,0-3.62-1.55h4.46a5,5,0,0,1,3.62,1.55,5.4,5.4,0,0,1,0,7.47,5,5,0,0,1-3.62,1.55H180.6a5,5,0,0,0,3.62-1.55A5.35,5.35,0,0,0,185.72,337.91Z" transform="translate(-2.25)"/><path class="cls-34" d="M120.77,324.49h32.51a5.38,5.38,0,0,1,3.43,1.19,3.61,3.61,0,0,1,0,5.75,5.33,5.33,0,0,1-3.43,1.2H120.77a5.36,5.36,0,0,1-3.44-1.2,3.61,3.61,0,0,1,0-5.75A5.41,5.41,0,0,1,120.77,324.49Z" transform="translate(-2.25)"/><path class="cls-3" d="M193.49,323.47H151.91a4.3,4.3,0,0,0-4.29,4.3h0a4.3,4.3,0,0,0,4.29,4.29h41.58Z" transform="translate(-2.25)"/><path class="cls-35" d="M193.49,323.91c.32,0,.57.18.57.4s-.25.39-.57.39H151.91a4.67,4.67,0,0,0-2.63.77,2.12,2.12,0,0,0,0,3.71,4.67,4.67,0,0,0,2.63.77h41.58c.32,0,.57.18.57.4s-.25.39-.57.39H151.91a6,6,0,0,1-3.43-1,2.75,2.75,0,0,1,0-4.83,6,6,0,0,1,3.43-1Z" transform="translate(-2.25)"/><path class="cls-36" d="M122.26,327.77a4.87,4.87,0,0,1,4.86-4.86H122.9a4.86,4.86,0,0,0,0,9.72h4.22a4.88,4.88,0,0,1-4.86-4.86Z" transform="translate(-2.25)"/><path class="cls-36" d="M128.39,327.77a4.85,4.85,0,0,1,4.86-4.86H129a4.86,4.86,0,0,0,0,9.72h4.23a4.87,4.87,0,0,1-4.86-4.86Z" transform="translate(-2.25)"/><rect class="cls-37" x="247.04" y="334.85" width="169.83" height="10.14" rx="5.07"/><path class="cls-38" d="M414.36,345H254.66a5.44,5.44,0,0,1-4.44-2.39,4.74,4.74,0,0,1,4.16-2.39H414.07a5.44,5.44,0,0,1,4.44,2.39A4.71,4.71,0,0,1,414.36,345Z" transform="translate(-2.25)"/><path class="cls-38" d="M417.69,334.85H290a6.17,6.17,0,0,1-6.21-6.63L289,245.48a7.18,7.18,0,0,1,7-6.63H423.76a6.16,6.16,0,0,1,6.21,6.63l-5.22,82.74A7.2,7.2,0,0,1,417.69,334.85Z" transform="translate(-2.25)"/><path class="cls-3" d="M417.69,334.85h-124a6.17,6.17,0,0,1-6.21-6.63l5.22-82.74a7.2,7.2,0,0,1,7.06-6.63h124a6.16,6.16,0,0,1,6.21,6.63l-5.22,82.74A7.2,7.2,0,0,1,417.69,334.85Z" transform="translate(-2.25)"/><path class="cls-39" d="M410.94,334.85H398.18L292.44,250.33l.3-4.85a7,7,0,0,1,1.52-3.88l116.68,93.25Zm-102.36-96L423.93,331a7,7,0,0,0,.82-2.82l.81-12.87-95.72-76.5Z" transform="translate(-2.25)"/><rect class="cls-19" x="247.04" y="334.85" width="39.16" height="10.14" rx="5.07"/><path class="cls-40" d="M416.44,337.39H283.55a2.75,2.75,0,0,1-2.69-2.54h0a2.37,2.37,0,0,1,2.39-2.54H416.13a2.73,2.73,0,0,1,2.69,2.54h0A2.37,2.37,0,0,1,416.44,337.39Z" transform="translate(-2.25)"/><path class="cls-10" d="M265.21,232.34a26.28,26.28,0,0,1,.2-12.23l-20.94-1.77,29.15-12.77s6.18-7.59,9.1-15-5-26.41-8-31.11-9.14-4-13.21-1.46c0,0-6.1-9.2-13.39-9.81S217.7,149.66,211,166.66s4.09,34-6.74,51.48a4.35,4.35,0,0,0,.45,4.08c1.41,1.86,18.49,21.77,57.44,13.75,0,0,3.1-.72,3.09-3.63Z" transform="translate(-2.25)"/><path class="cls-11" d="M237.76,237.55c2.15-23.42,3.66-43.77,3.66-43.77l-2-6.6s-17.93,14.5-30.66-.75c.6,10.46,2.1,21-4.54,31.71a4.35,4.35,0,0,0,.45,4.08l.06.07,0,0,.05.06.05.06,0,0,.09.11h0l.11.13,0,0,.09.1.08.09.06.07.13.15,0,0,.16.17,0,0,.14.16.1.1.1.1.06.07.14.14.22.22.16.15.11.11c3.73,3.61,12.41,10.27,27,12.59h0c1.27.2,2.58.37,3.94.5Z" transform="translate(-2.25)"/><path class="cls-11" d="M265.21,232.34c-1.33-6.62-.4-9.29,1.45-18.14L233.34,209l-14.56,2.82a97.34,97.34,0,0,1-5.08,18c8.87,5.49,24.53,11.08,48.42,6.16,0,0,3.1-.72,3.09-3.63Z" transform="translate(-2.25)"/><path class="cls-41" d="M221,233.78c9.22,2.89,21.82,6.35,32.69,11.69.75.37-.78,3.27-.08,3.65a25.63,25.63,0,0,1,4.77,3.88c5.08,5,15.41,44.31,14.48,48.22-1.48,6.3-14.53,23.6-14.53,23.6-2.59,5-5.81,12.3-9,20.17H184.54c4.52-14.67,6.2-24.61,6.32-33.58h0c3.46-30.46-12.92-37.09-12.92-37.09l17-39.91c6.6-2.34,19.76-1.46,19.76-1.46C218.15,232.94,217.88,232.8,221,233.78Z" transform="translate(-2.25)"/><path class="cls-42" d="M249.37,345h-9.15c1.7-4.56,9.63-26.14,11.33-30.74-7.71-1.34-18.32-3.18-20.19-3.63s-9,3.65-9,3.65l.79-4.66-7.69,7.75,13.16-24.56s21.46,4.84,26,5.68,1.78.19,2.63.13c2.54-7.14-1.62-9.13-1.12-12.59s.63-36.94.63-36.94c2.78,1.44,4,4.56,5.6,9.49,1,3.24,6.52,24.56,8.78,37.16.54,3,1,5.25,1.24,7C267.28,315.73,255.86,328.79,249.37,345Z" transform="translate(-2.25)"/><path class="cls-4" d="M237,197l-3.24,9.75s-4.91,23-6,26c-.39,1-1.69,1.35-3.68,1.31,2.87,4.11,8.45,10.38,16.51,11.91,5.15,1,8.75,0,11.19-1.42-1.72-.91-3.37-2-3.36-2.88.07-7.85,1.42-21.67,5.68-24.23C258.92,214.48,237,197,237,197Z" transform="translate(-2.25)"/><path class="cls-3" d="M225.64,234a20.86,20.86,0,0,1-4.64-.18,34.91,34.91,0,0,0,10.32,9.32c12.71,8.06,18.83,3.67,20.77,1.6a14,14,0,0,1-3.1-2h0c-11.87,5.8-23.35-8.75-23.35-8.75Z" transform="translate(-2.25)"/><path class="cls-14" d="M253.18,245.22s5.07,51,4.45,55.34S249,326.1,241.89,345H254c2.4-4.62,4.23-8.23,4.57-9.1.21-.56,1.05-2.19,2.21-4.33,2.07-3.85,5.17-9.33,7.51-13.16,7.45-12.23,7.43-9.38,4.85-23.7-2.27-12.61-9.23-35.93-10.26-39.18C261.35,250.59,254.49,244.86,253.18,245.22Z" transform="translate(-2.25)"/><path class="cls-10" d="M252.46,316.24c-1.67,4.67-3.61,10-5.62,15.44a40.81,40.81,0,0,1,7.69,1.1c3.69,1.45,4.08,3.11,4.08,3.11.21-.56,1.05-2.19,2.21-4.33,2.07-3.85,5.17-9.33,7.51-13.16,2.24-3.68,3.8-6,4.83-7.82-1.44,1.26-3.72,3.16-4.84,3.49C267,314.48,256.63,315.74,252.46,316.24Z" transform="translate(-2.25)"/><path class="cls-14" d="M219.09,232.69s9.3,45.07,10.58,58.17-2.83,22.48-7.44,32.32C220.68,326.5,215.7,335,209.56,345H180.92L184,274.2l-8.21-1.9c.49-3.56.88-6.51,1.16-8.57l16.17-28.59S199.2,230.19,219.09,232.69Z" transform="translate(-2.25)"/><path class="cls-10" d="M201.67,254.39c-4.57,18.35-1.39,26-1.39,26l2.44-11.42s2.32,16.86,4.89,19c1.28,1.06,16.51,4,22.22,5.05A47.85,47.85,0,0,1,227,311.87c-4.09.42-28.73-3.05-29.91,4.91-.59,4-.45-8.8-.45-8.8l-1.46,37H180.92L184,274.2l-8.21-1.9,0-.17,0-.16,0-.17,0-.16h0l0-.17,0-.16,0-.16,0-.16,0-.16,0-.15,0-.16h0l0-.16,0-.15,0-.16h0l0-.15,0-.15h0l0-.15h0l0-.15h0l0-.15h0l0-.15h0l0-.15h0l0-.14h0l0-.15h0l0-.14h0l0-.15h0l0-.14h0l0-.14h0V268h0l0-.14h0l0-.13h0l0-.14h0l0-.14h0l0-.13h0v-.13h0l0-.14h0l0-.13h0l0-.13h0l0-.13h0v-.12h0l0-.13h0l0-.13h0v-.12h0l0-.12h0l0-.12h0v-.12h0l0-.11h0v-.12h0l0-.12h0l0-.12h0v-.11h0l0-.11h0V265h0l0-.11h0v-.11h0l0-.11h0v-.1h0v-.11h0l0-.11h0v-.1h0l0-.1h0V264h0v-.1h0l0-.1h0v-.1l8.76-15.48Z" transform="translate(-2.25)"/><path class="cls-16" d="M179,255.14c-5.24,14.33-6.67,63.47-2.35,89.85h23c-9.41-52.37,10.36-89.83,6-103.1C198.74,220.64,182.47,245.72,179,255.14Z" transform="translate(-2.25)"/><path class="cls-11" d="M271.05,206.69l2.57-1.12a74.85,74.85,0,0,0,7.46-11.44c-.61,1.17-4.65,8.23-10.57,3.91-6.43-4.69-6.69,2.74-6.69,2.74s3.89,4.42,6.15,5.46c.29.13.66.29,1.08.45ZM281.15,194h0Z" transform="translate(-2.25)"/><path class="cls-4" d="M268.32,202.42a7.33,7.33,0,1,0,6.54,8.05A7.34,7.34,0,0,0,268.32,202.42Z" transform="translate(-2.25)"/><path class="cls-4" d="M217.23,197.21l-.54,0h0a7.34,7.34,0,1,0,6,2c0,2.17-.56,4.81-3.34,4.85l.44-4.21A2.54,2.54,0,0,0,217.23,197.21Z" transform="translate(-2.25)"/><path class="cls-8" d="M248.82,163.11h0a25.19,25.19,0,0,0-27.57,22.4l-2.36,22.71a25.2,25.2,0,0,0,22.4,27.58h0a25.2,25.2,0,0,0,27.58-22.4l2.35-22.71A25.19,25.19,0,0,0,248.82,163.11Z" transform="translate(-2.25)"/><path class="cls-9" d="M220.83,189.5l-1.94,18.72a25.22,25.22,0,0,0,16,26.05c-14.63-6.06-7.13-31.47-7.13-31.47,3-.51,7.63-6,10.35-9.24s4.81-6.45,9.5-6.35,14.58,2.55,14.58,2.55a27.58,27.58,0,0,0,8.05,10.2l1-9.27a24.94,24.94,0,0,0-.47-8.07l-1.89-1.08C248.74,170.23,231.66,179.38,220.83,189.5Z" transform="translate(-2.25)"/><path class="cls-11" d="M267.48,183.58l-4.06,1.73a12,12,0,0,0-8.19-1.32s-8.92-3.28-13.65-1.45-2-4.74-1.08-5,9.82-.85,13.73-.1,9.78,1.67,9.78,1.67Z" transform="translate(-2.25)"/><path class="cls-11" d="M220,196l2.41.42s1.67,7.62-3.06,7.68l.44-4.21a2.39,2.39,0,0,0,0-.81Z" transform="translate(-2.25)"/><path class="cls-10" d="M255.23,184c-3.68-5-9.68-6-14.34,1-4.26,6.36-10.59,17.36-21.25,16.46l0-.19h0l.59-7.1s-.89.24-2,.49a45.65,45.65,0,0,1-.37-12.72c1.23-8.92,13.65-21.95,27.65-22.45s24.12,7.81,26.13,12.55,4,15.5,4,15.5L273.16,191l-2.65,7c-6.44-6.26-5.78-12.19-8.58-15.17C260.42,181.25,258.15,181.25,255.23,184Z" transform="translate(-2.25)"/><path class="cls-11" d="M239.43,187.18c-4.22,6.4-10.29,15.06-19.79,14.26l0-.19h0l.59-7.1s-.89.24-2,.49c-.1-.61-.18-1.25-.27-1.92C228.69,195.84,239.4,187.21,239.43,187.18Z" transform="translate(-2.25)"/><path class="cls-43" d="M250.47,243.8s6.54,53.63,6.41,55.38S255,309.3,255,309.3s3.15-5.29,3.93-9.67,2.83-34.06,2.83-34.06l-3.48-1.87,3.23-.19-5.33-16.66a4.72,4.72,0,0,0-1.44-1.72c-.84-.49-3.9-2-3.95-2a2,2,0,0,0-1.19.14Z" transform="translate(-2.25)"/><path class="cls-43" d="M219.09,232.69s9.3,45.07,10.58,58.17a46.52,46.52,0,0,1-.81,14.52c1.71-13.4-17.15-44.93-17.15-44.93l4.91-2.32-6.58-3s3-17,3.22-19.8-1.27-3.27-1.35-3.3C214.07,232.16,216.46,232.36,219.09,232.69Z" transform="translate(-2.25)"/><path class="cls-17" d="M33,364.9h8.15A5.92,5.92,0,0,0,47,359h0a5.92,5.92,0,0,0-5.9-5.9H19.59a4.7,4.7,0,0,1-4.68-4.69h0a4.69,4.69,0,0,1,4.68-4.68H588a4.69,4.69,0,0,1,4.68,4.68h0A4.7,4.7,0,0,1,588,353.1H558.5a5.91,5.91,0,0,0-5.9,5.9h0a5.92,5.92,0,0,0,5.9,5.9h6.92a9.39,9.39,0,0,1,9.36,9.37h0a9.4,9.4,0,0,1-9.36,9.37H33a9.4,9.4,0,0,1-9.37-9.37h0A9.4,9.4,0,0,1,33,364.9Zm-26-21.17a4.69,4.69,0,1,1-4.68,4.68A4.68,4.68,0,0,1,6.93,343.73Z" transform="translate(-2.25)"/><path class="cls-44" d="M323.91,98.17h-42.7a7.56,7.56,0,0,0-7.54,7.54V142.9a1.57,1.57,0,0,0,.28.9,1.63,1.63,0,0,0,.72.6h0a1.67,1.67,0,0,0,.93.09,1.6,1.6,0,0,0,.83-.44L287.52,133h36.39a7.56,7.56,0,0,0,7.53-7.54V105.71a7.55,7.55,0,0,0-7.53-7.54Zm-42.7,1.76h42.7a5.79,5.79,0,0,1,5.77,5.78v19.72a5.79,5.79,0,0,1-5.77,5.78H286.8l-11.37,11.36V105.71a5.8,5.8,0,0,1,5.78-5.78Z" transform="translate(-2.25)"/><path class="cls-45" d="M324.26,105.53a.48.48,0,0,0,.48-.48.47.47,0,0,0-.48-.48H280.85a.48.48,0,0,0-.48.48.49.49,0,0,0,.48.48Z" transform="translate(-2.25)"/><path class="cls-46" d="M324.26,110.22a.48.48,0,0,0,.48-.48.47.47,0,0,0-.48-.48h-4.59a.48.48,0,0,0-.49.48.49.49,0,0,0,.49.48Zm-10.72,0a.48.48,0,0,0,.48-.48.47.47,0,0,0-.48-.48H280.85a.48.48,0,0,0-.48.48.49.49,0,0,0,.48.48Z" transform="translate(-2.25)"/><path class="cls-47" d="M324.26,114.91a.48.48,0,0,0,.48-.48.47.47,0,0,0-.48-.48H280.85a.48.48,0,0,0-.48.48.49.49,0,0,0,.48.48Z" transform="translate(-2.25)"/><path class="cls-48" d="M312.19,121.27a.48.48,0,0,0,.48-.48.47.47,0,0,0-.48-.48H280.85a.48.48,0,0,0-.48.48.49.49,0,0,0,.48.48Z" transform="translate(-2.25)"/><path class="cls-49" d="M298.2,126.36a.49.49,0,0,0,.48-.48.48.48,0,0,0-.48-.48H280.85a.48.48,0,0,0-.48.48.49.49,0,0,0,.48.48Z" transform="translate(-2.25)"/><path class="cls-50" d="M308.14,126.36a.49.49,0,0,0,.48-.48.48.48,0,0,0-.48-.48h-6.2a.48.48,0,0,0-.49.48.49.49,0,0,0,.49.48Z" transform="translate(-2.25)"/></svg>