<svg id="Layer_1" data-name="Layer 1" xmlns="http://www.w3.org/2000/svg" xmlns:xlink="http://www.w3.org/1999/xlink" viewBox="0 0 84.63 86.01"><defs><style>.cls-1{fill:none;}.cls-2{clip-path:url(#clip-path);}.cls-3{fill:url(#linear-gradient);}.cls-4{fill:#acbc8e;}.cls-5{font-size:15.57px;fill:#84916e;font-family:Montserrat-Black, Montserrat Black;font-weight:800;}.cls-6{fill:#ffe275;}.cls-7{clip-path:url(#clip-path-2);}.cls-8{fill:#fcbe89;}.cls-9{fill:#fcc28e;}</style><clipPath id="clip-path"><path class="cls-1" d="M121.37-46.21A41.16,41.16,0,0,1,80.2-5,41.16,41.16,0,0,1,39-46.21,41.17,41.17,0,0,1,80.2-87.38,41.17,41.17,0,0,1,121.37-46.21Z"/></clipPath><linearGradient id="linear-gradient" x1="1.15" y1="43" x2="83.48" y2="43" gradientUnits="userSpaceOnUse"><stop offset="0" stop-color="#985ea6"/><stop offset="0.47" stop-color="#7167ae"/><stop offset="1" stop-color="#007ec3"/></linearGradient><clipPath id="clip-path-2"><path class="cls-1" d="M83.48,43A41.17,41.17,0,1,1,42.31,1.84,41.17,41.17,0,0,1,83.48,43Z"/></clipPath></defs><path class="cls-3" d="M83.48,43A41.17,41.17,0,1,1,42.31,1.84,41.17,41.17,0,0,1,83.48,43Z"/><path class="cls-4" d="M59.69,51.88c0,8-7.78,14.45-17.38,14.45S24.94,59.86,24.94,51.88,32.72,29.7,42.31,29.7,59.69,43.91,59.69,51.88Z"/><text class="cls-5" transform="translate(37.31 52.05)">$</text><path class="cls-4" d="M35.78,31.9s-5.87-8.45-4-9.78S46.58,17.6,52.4,21.7C53.81,22.7,48,34.12,48,34.12Z"/><path class="cls-6" d="M50.25,31.86c0,1-3.5,0-7.81,0s-7.81,1-7.81,0,3.49-1.71,7.81-1.71S50.25,30.91,50.25,31.86Z"/><g class="cls-7"><path class="cls-8" d="M-10.86,61.69a142.84,142.84,0,0,0,18.15-5.4c5.52-2.16,10-5.8,11.6-5.87,4-.16,21.59-.43,22.2,2.29.54,2.38.25,3.58-10,3.44C22.26,56,41.22,62.52,48.2,59.53s10.07-9.15,13.35-5.24c1.09,1.3-9.85,9.86-14.31,12.27-3,1.61-23.68,0-29.85-.42-3.59-.26-14.84,6.1-14.84,6.1H-10.86Z"/><path class="cls-9" d="M36.56,52.67s0,2.13.23,2.19,3.47.23,3.89-1-1-1.63-2.06-1.65S36.55,52.15,36.56,52.67Z"/></g></svg>