<svg id="Layer_1" data-name="Layer 1" xmlns="http://www.w3.org/2000/svg" xmlns:xlink="http://www.w3.org/1999/xlink" viewBox="0 0 84.63 86.01"><defs><style>.cls-1{fill:none;}.cls-2{fill:url(#linear-gradient);}.cls-3{fill:#ececec;}.cls-4{fill:#224063;}.cls-5{fill:#74acdd;}.cls-6{fill:#e0e0df;}.cls-13,.cls-7,.cls-9{fill:#fff;}.cls-7{opacity:0.1;}.cls-8{fill:#fec35f;}.cls-10{fill:#f0594c;}.cls-11{clip-path:url(#clip-path);}.cls-12{fill:#f8a47c;}.cls-13{opacity:0.2;}</style><linearGradient id="linear-gradient" x1="1.15" y1="43" x2="83.48" y2="43" gradientUnits="userSpaceOnUse"><stop offset="0" stop-color="#985ea6"/><stop offset="0.47" stop-color="#7167ae"/><stop offset="1" stop-color="#007ec3"/></linearGradient><clipPath id="clip-path"><path class="cls-1" d="M83.48,43A41.17,41.17,0,1,1,42.31,1.84,41.16,41.16,0,0,1,83.48,43Z"/></clipPath></defs><path class="cls-2" d="M83.48,43A41.17,41.17,0,1,1,42.31,1.84,41.17,41.17,0,0,1,83.48,43Z"/><path class="cls-3" d="M65.71,41l0,25.79a1.49,1.49,0,0,1-1.49,1.49l-42.74,0A1.49,1.49,0,0,1,20,66.8L20,41a1.48,1.48,0,0,1,1.48-1.49l42.74,0A1.49,1.49,0,0,1,65.71,41Z"/><path class="cls-4" d="M68.86,17.11,65.71,38a1.49,1.49,0,0,1-1.49,1.49l-42.74,0a1.46,1.46,0,0,1-1.25-.69,1.44,1.44,0,0,1-.24-.79L16.77,17.14a1.49,1.49,0,0,1,1.48-1.48l49.12,0A1.48,1.48,0,0,1,68.86,17.11Z"/><polygon class="cls-5" points="63.19 38 22.14 38.04 18.92 18.52 66.34 18.49 63.19 38"/><rect class="cls-4" x="22.15" y="41.21" width="2.38" height="2.34" transform="translate(-0.05 0.03) rotate(-0.07)"/><rect class="cls-4" x="25.68" y="41.2" width="2.38" height="2.34" transform="matrix(1, 0, 0, 1, -0.05, 0.03)"/><rect class="cls-4" x="29.21" y="41.2" width="2.38" height="2.34"/><rect class="cls-4" x="32.75" y="41.2" width="2.38" height="2.34"/><rect class="cls-4" x="36.28" y="41.19" width="2.38" height="2.34"/><rect class="cls-4" x="39.81" y="41.19" width="2.38" height="2.34"/><rect class="cls-4" x="43.35" y="41.18" width="2.38" height="2.34" transform="translate(-0.05 0.05) rotate(-0.07)"/><rect class="cls-4" x="46.88" y="41.18" width="2.38" height="2.34"/><rect class="cls-4" x="50.41" y="41.18" width="2.38" height="2.34" transform="translate(-0.05 0.06) rotate(-0.07)"/><rect class="cls-4" x="53.95" y="41.17" width="2.38" height="2.34"/><rect class="cls-4" x="57.48" y="41.17" width="2.38" height="2.34"/><rect class="cls-4" x="61.02" y="41.17" width="2.38" height="2.34"/><rect class="cls-4" x="22.15" y="44.93" width="5.57" height="2.34"/><rect class="cls-4" x="25.48" y="44.93" width="2.24" height="2.34" transform="translate(-0.06 0.03) rotate(-0.07)"/><rect class="cls-4" x="28.81" y="44.92" width="2.24" height="2.34"/><rect class="cls-4" x="32.14" y="44.92" width="2.24" height="2.34" transform="translate(-0.06 0.04) rotate(-0.08)"/><rect class="cls-4" x="35.47" y="44.92" width="2.24" height="2.34"/><rect class="cls-4" x="38.8" y="44.91" width="2.24" height="2.34" transform="translate(-0.06 0.05) rotate(-0.07)"/><rect class="cls-4" x="42.13" y="44.91" width="2.24" height="2.34"/><rect class="cls-4" x="45.46" y="44.91" width="2.24" height="2.34" transform="translate(-0.06 0.06) rotate(-0.07)"/><rect class="cls-4" x="48.79" y="44.9" width="2.24" height="2.34" transform="translate(-0.06 0.07) rotate(-0.08)"/><rect class="cls-4" x="52.12" y="44.9" width="2.24" height="2.34" transform="translate(-0.06 0.07) rotate(-0.08)"/><rect class="cls-4" x="55.45" y="44.9" width="5.57" height="2.34" transform="translate(-0.06 0.07) rotate(-0.07)"/><rect class="cls-4" x="58.78" y="44.89" width="4.62" height="2.34" transform="matrix(1, 0, 0, 1, -0.06, 0.08)"/><rect class="cls-4" x="22.15" y="48.66" width="2.38" height="2.34" transform="translate(-0.06 0.03) rotate(-0.07)"/><rect class="cls-4" x="25.69" y="48.65" width="2.38" height="2.34"/><rect class="cls-4" x="29.22" y="48.65" width="2.38" height="2.34" transform="translate(-0.06 0.04) rotate(-0.07)"/><rect class="cls-4" x="32.75" y="48.64" width="2.38" height="2.34"/><rect class="cls-4" x="36.29" y="48.64" width="2.38" height="2.34"/><rect class="cls-4" x="39.82" y="48.64" width="2.38" height="2.34" transform="translate(-0.06 0.05) rotate(-0.07)"/><rect class="cls-4" x="43.35" y="48.63" width="2.38" height="2.34"/><rect class="cls-4" x="46.89" y="48.63" width="2.38" height="2.34" transform="translate(-0.06 0.06) rotate(-0.07)"/><rect class="cls-4" x="50.42" y="48.63" width="2.38" height="2.34"/><rect class="cls-4" x="53.96" y="48.62" width="2.38" height="2.34"/><rect class="cls-4" x="57.49" y="48.62" width="2.38" height="2.34" transform="translate(-0.06 0.07) rotate(-0.07)"/><rect class="cls-4" x="61.02" y="48.62" width="2.38" height="2.34"/><rect class="cls-4" x="22.16" y="52.38" width="2.27" height="2.34" transform="translate(-0.07 0.03) rotate(-0.07)"/><rect class="cls-4" x="25.53" y="52.38" width="2.27" height="2.34"/><rect class="cls-4" x="28.91" y="52.37" width="2.27" height="2.34"/><rect class="cls-4" x="32.28" y="52.37" width="2.27" height="2.34"/><rect class="cls-4" x="35.66" y="52.37" width="2.27" height="2.34"/><rect class="cls-4" x="39.03" y="52.36" width="2.27" height="2.34" transform="translate(-0.07 0.05) rotate(-0.07)"/><rect class="cls-4" x="42.41" y="52.36" width="2.27" height="2.34" transform="translate(-0.07 0.06) rotate(-0.07)"/><rect class="cls-4" x="45.78" y="52.36" width="2.27" height="2.34" transform="translate(-0.07 0.06) rotate(-0.07)"/><rect class="cls-4" x="49.16" y="52.35" width="2.27" height="2.34"/><rect class="cls-4" x="50.3" y="52.35" width="4.51" height="2.34"/><rect class="cls-4" x="55.91" y="52.35" width="2.27" height="2.34"/><rect class="cls-4" x="59.29" y="52.34" width="4.12" height="2.34"/><rect class="cls-4" x="22.16" y="56.1" width="2.38" height="2.34"/><rect class="cls-4" x="25.69" y="56.1" width="2.38" height="2.34" transform="translate(-0.07 0.03) rotate(-0.07)"/><rect class="cls-4" x="29.23" y="56.1" width="2.38" height="2.34"/><rect class="cls-4" x="32.76" y="56.09" width="2.38" height="2.34"/><rect class="cls-4" x="36.3" y="56.08" width="12.98" height="2.34" transform="translate(-0.06 0.05) rotate(-0.06)"/><rect class="cls-4" x="39.83" y="56.09" width="2.38" height="2.34"/><rect class="cls-4" x="43.36" y="56.08" width="2.38" height="2.34" transform="translate(-0.07 0.06) rotate(-0.07)"/><rect class="cls-4" x="46.9" y="56.08" width="2.38" height="2.34" transform="translate(-0.07 0.06) rotate(-0.07)"/><rect class="cls-4" x="50.43" y="56.08" width="2.38" height="2.34"/><rect class="cls-4" x="53.96" y="56.07" width="2.38" height="2.34" transform="translate(-0.07 0.07) rotate(-0.07)"/><rect class="cls-4" x="57.5" y="56.07" width="2.38" height="2.34"/><rect class="cls-4" x="61.03" y="56.07" width="2.38" height="2.34" transform="translate(-0.07 0.08) rotate(-0.07)"/><rect class="cls-6" x="36.3" y="59.87" width="12.98" height="6.3" transform="translate(-0.07 0.05) rotate(-0.06)"/><path class="cls-7" d="M51.43,15.64,49.1,18.5,29.63,38l-1.21,1.48H21.48a1.46,1.46,0,0,1-1.25-.69l1.91-2.31,18.46-18,.9-1.08.43-.52,1-1.25Z"/><polygon class="cls-7" points="57.81 15.63 55.48 18.49 36.01 38.03 34.8 39.52 29.95 39.52 31.18 38.03 50.9 18.49 53.26 15.63 57.81 15.63"/><polygon class="cls-8" points="62.33 21.64 22.75 21.64 22.49 20.4 62.58 20.4 62.33 21.64"/><polygon class="cls-9" points="33.13 23.83 23.08 23.83 22.82 22.59 33.15 22.59 33.13 23.83"/><rect class="cls-9" x="24.47" y="35.19" width="36.54" height="0.21"/><polyline class="cls-8" points="24.47 35.2 24.56 35.14 35.13 29.14 51.34 35.2"/><polygon class="cls-10" points="35.48 35.2 51.05 25.76 61.01 35.2 35.48 35.2"/><polygon class="cls-4" points="28.29 35.2 43.86 32.45 53.83 35.2 28.29 35.2"/><g class="cls-11"><path class="cls-12" d="M51.53,77.39A19.72,19.72,0,0,0,51.19,73c-.6-1.48-3-3.31-3.76-4.74a23.34,23.34,0,0,1-.92-4.08L46.58,61a1.47,1.47,0,0,1,1.58.86,7,7,0,0,1,.38,2.3l.58,1.49L48.9,53.34a.84.84,0,0,1,.9-1c.93,0,.86.72,1,1.45l.93,9,1.44,4.75.53,9.89Z"/><path class="cls-12" d="M53.59,63.05a1.13,1.13,0,0,1-1.12,1.13h0a1.14,1.14,0,0,1-1.14-1.12l0-4.91A1.14,1.14,0,0,1,52.43,57h0a1.14,1.14,0,0,1,1.14,1.13Z"/><path class="cls-12" d="M55.49,63.39a1,1,0,0,1-1,1h0a1,1,0,0,1-1-1l0-4.2a1,1,0,0,1,1-1h0a1,1,0,0,1,1,1Z"/><path class="cls-12" d="M57.76,64.92c0,.54-.75.86-1.29.86h0a1,1,0,0,1-1-1l0-4.2a1,1,0,0,1,1-1h0a1,1,0,0,1,1,1Z"/><path class="cls-12" d="M57.76,64.92l-.3,5.39,0,7-5,0-.06-12.15-1.61-1s.13-1.25.83-1.45a20.58,20.58,0,0,1,2.83-.47c.3,0,2.11.45,2.11.45Z"/><polygon class="cls-4" points="59.61 74.31 52.32 74.35 49.89 74.36 50.05 104.15 59.76 104.1 59.61 74.31"/><path class="cls-13" d="M49.71,52.62s-.54,0-.51.43-.05,1,.11,1.06,1.1.07,1.11-.1a6.92,6.92,0,0,0-.09-1.08C50.29,52.83,50.2,52.58,49.71,52.62Z"/><path class="cls-13" d="M46.54,62.72s.35.13.41-.06.14-1.39-.09-1.48a1.24,1.24,0,0,1-.28-.14Z"/><rect class="cls-9" x="50.63" y="73.1" width="8.07" height="1.21"/></g></svg>