<svg xmlns="http://www.w3.org/2000/svg" xmlns:xlink="http://www.w3.org/1999/xlink" viewBox="0 0 84.63 86.01"><defs><style>.cls-1{fill:none;}.cls-2{isolation:isolate;}.cls-3{fill:url(#linear-gradient);}.cls-4,.cls-8{fill:#fff;}.cls-5{fill:#5b5651;}.cls-6{fill:#cececd;}.cls-7{fill:#e1e1e1;}.cls-8{opacity:0.5;mix-blend-mode:soft-light;}.cls-9{clip-path:url(#clip-path);}.cls-10{fill:#fcbe89;}.cls-11{fill:#fcc28e;}</style><linearGradient id="linear-gradient" x1="1.15" y1="43" x2="83.48" y2="43" gradientUnits="userSpaceOnUse"><stop offset="0" stop-color="#985ea6"/><stop offset="0.47" stop-color="#7167ae"/><stop offset="1" stop-color="#007ec3"/></linearGradient><clipPath id="clip-path"><path class="cls-1" d="M83.48,43A41.17,41.17,0,1,1,42.31,1.84,41.17,41.17,0,0,1,83.48,43Z"/></clipPath></defs><g class="cls-2"><g id="Layer_1" data-name="Layer 1"><path class="cls-3" d="M83.48,43A41.17,41.17,0,1,1,42.31,1.84,41.17,41.17,0,0,1,83.48,43Z"/><path class="cls-4" d="M48.13,48a.68.68,0,0,1-.48,1.17.69.69,0,0,1-.49-.19l-4.42-4.42a1.54,1.54,0,0,1-.43.06A1.63,1.63,0,0,1,40.68,43a1.61,1.61,0,0,1,1-1.48V35a.69.69,0,0,1,.68-.7A.7.7,0,0,1,43,35v6.54A1.65,1.65,0,0,1,44,43a1.62,1.62,0,0,1-.16.69Z"/><path class="cls-5" d="M42.31,24.88A18.13,18.13,0,1,0,60.44,43,18.12,18.12,0,0,0,42.31,24.88Zm0,32.33A14.21,14.21,0,1,1,56.52,43,14.22,14.22,0,0,1,42.31,57.21Z"/><path class="cls-6" d="M56.52,43A14.19,14.19,0,0,1,32,52.74a14.2,14.2,0,0,0,20.17-20A14.12,14.12,0,0,1,56.52,43Z"/><path class="cls-7" d="M55.92,42.4A14.19,14.19,0,0,1,32,52.74a13.72,13.72,0,0,1-1.83-2.4A14.2,14.2,0,0,1,52,32.6l.18.18A14.18,14.18,0,0,1,55.92,42.4Z"/><path class="cls-7" d="M55.92,42.4A14.19,14.19,0,0,1,32,52.74a13.72,13.72,0,0,1-1.83-2.4A14.2,14.2,0,0,1,52,32.6l.18.18A14.18,14.18,0,0,1,55.92,42.4Z"/><path class="cls-4" d="M43.4,43a1,1,0,0,1-.1.46,1.1,1.1,0,0,1-.7.6,1.43,1.43,0,0,1-.29,0A1.09,1.09,0,0,1,41.86,42a1.13,1.13,0,0,1,.45-.09,1.18,1.18,0,0,1,.46.09A1.1,1.1,0,0,1,43.4,43Z"/><path class="cls-4" d="M43,42.51a.65.65,0,0,1-.08.31.67.67,0,0,1-.61.38.67.67,0,0,1-.6-.36.7.7,0,0,1-.08-.33s.3-8.23.68-8.23S43,42.51,43,42.51Z"/><path class="cls-4" d="M50.2,50.81c-.16.11-7.46-6.23-7.46-6.23l-.92-.91a.7.7,0,0,1-.11-.83.76.76,0,0,1,.11-.14.7.7,0,0,1,1,0l.12.12.87.87S50.39,50.68,50.2,50.81Z"/><path class="cls-8" d="M48.92,35.81A15,15,0,0,1,30.16,50.34,14.2,14.2,0,0,1,47.69,29.86,14.9,14.9,0,0,1,48.92,35.81Z"/><rect class="cls-5" x="42.06" y="28.53" width="0.67" height="1.25"/><rect class="cls-5" x="27.86" y="42.57" width="1.25" height="0.67"/><rect class="cls-5" x="41.9" y="56.19" width="0.67" height="1.25"/><rect class="cls-5" x="55.52" y="42.74" width="1.25" height="0.67"/><g class="cls-9"><path class="cls-10" d="M-10.86,61.69a142.84,142.84,0,0,0,18.15-5.4c5.52-2.16,10-5.8,11.6-5.87,4-.16,21.59-.43,22.2,2.29.54,2.38.25,3.58-10,3.44C22.26,56,41.22,62.52,48.2,59.53s10.07-9.15,13.35-5.24c1.09,1.3-9.85,9.86-14.31,12.27-3,1.61-23.68,0-29.85-.42-3.59-.26-14.84,6.1-14.84,6.1H-10.86Z"/><path class="cls-11" d="M36.56,52.67s0,2.13.23,2.19,3.47.23,3.89-1-1-1.62-2.06-1.65S36.55,52.15,36.56,52.67Z"/></g></g></g></svg>