<svg id="Layer_1" data-name="Layer 1" xmlns="http://www.w3.org/2000/svg" xmlns:xlink="http://www.w3.org/1999/xlink" viewBox="0 0 84.63 86.01"><defs><style>.cls-1{fill:none;}.cls-2{fill:url(#linear-gradient);}.cls-3{clip-path:url(#clip-path);}.cls-4{fill:#5b5651;}.cls-5{fill:#faaf78;}.cls-6{fill:#fbbe95;}.cls-7{fill:#faa540;}.cls-8{fill:#847d75;}.cls-9{fill:#f7b68b;}.cls-10{fill:#8f7553;}.cls-11{fill:#00a5c0;}.cls-12{fill:#00aec9;}</style><linearGradient id="linear-gradient" x1="1.15" y1="42.95" x2="83.48" y2="42.95" gradientUnits="userSpaceOnUse"><stop offset="0" stop-color="#985ea6"/><stop offset="0.47" stop-color="#7167ae"/><stop offset="1" stop-color="#007ec3"/></linearGradient><clipPath id="clip-path"><path class="cls-1" d="M83.48,43.06A41.17,41.17,0,1,1,42.31,1.89,41.16,41.16,0,0,1,83.48,43.06Z"/></clipPath></defs><path class="cls-2" d="M83.48,43A41.17,41.17,0,1,1,42.31,1.78,41.17,41.17,0,0,1,83.48,43Z"/><g class="cls-3"><path class="cls-4" d="M36.32,74.63a24.09,24.09,0,0,1-16,7.46c-.48,0-1,0-1.45,0s-1,0-1.52,0A24.1,24.1,0,0,1,1.24,74.55a8.61,8.61,0,0,1,2.48-1.83l7.48-3.46,2-.92,3.62-1.68,1.83-.85v-.09l.11,0,.1,0v.09l1.83.86,3.64,1.68,2,.91,7.48,3.46A8.53,8.53,0,0,1,36.32,74.63Z"/><polygon class="cls-5" points="22.95 59.14 14.59 59.14 13.13 68.75 24.36 68.57 22.95 59.14"/><path class="cls-6" d="M26.71,51.56c-.38-2.92,1-8.42-2.43-9.78a13.32,13.32,0,0,0-5.53-1,13.36,13.36,0,0,0-5.54,1c-3.4,1.36-2.05,6.86-2.43,9.78S12,61.08,13.54,63.38a6.29,6.29,0,0,0,10.42,0C25.49,61.06,27.09,54.48,26.71,51.56Z"/><polygon class="cls-7" points="18.26 71.32 16.55 70.16 18.75 67.07 21.09 70.26 19.35 71.32 18.35 71.32 18.26 71.32"/><polygon class="cls-8" points="11.2 69.26 13.55 65.97 18.75 67.07 17.07 71.32 11.2 69.26"/><polygon class="cls-8" points="26.29 69.26 23.94 65.97 18.75 67.07 20.42 71.32 26.29 69.26"/><path class="cls-7" d="M20.27,82.09c-.48,0-1,0-1.45,0s-1,0-1.52,0l.93-10.78.07-.85.45-.29v0l0,0,0,0v0l.45.29.08.87Z"/><path class="cls-6" d="M13.57,54.11a2.34,2.34,0,0,1-2,2.56c-1.12,0-1.81-1.16-2-2.56-.25-1.61.13-2.56,1.25-2.56A3,3,0,0,1,13.57,54.11Z"/><path class="cls-6" d="M23.9,54.11a2.34,2.34,0,0,0,2,2.56c1.11,0,1.81-1.16,2-2.56.24-1.61-.14-2.56-1.25-2.56S23.9,52.7,23.9,54.11Z"/><path class="cls-4" d="M10.58,50.35A13.77,13.77,0,0,0,11,53c.17,0,.48,0,.48,0l1.37-6.4s11-.07,11-4.17c0-3.19-9.71-2.51-12.59.37C9.67,44.38,10.58,50.35,10.58,50.35Z"/><path class="cls-4" d="M27.16,50.35a13.79,13.79,0,0,1-.47,2.6c-.17,0-.47,0-.47,0l-1.38-6.4s-5.51-1.85-5.51-4.07c0-2.64,4.22-2.61,7.1.27C28.06,44.38,27.16,50.35,27.16,50.35Z"/><path class="cls-4" d="M77.54,70.33,72.4,68h0l-1.23-.57L70.45,67h0l-1-.45-3.11-1.43-1.56-.73v-.08l-.08,0-.09,0v.08l-1.57.72L60,66.59l-.86.4-.83.39-1.06.48h0l-5.31,2.46a7.26,7.26,0,0,0-2.11,1.56A20.56,20.56,0,0,0,63.5,78.31c.43,0,.86,0,1.3,0s.82,0,1.24,0A20.48,20.48,0,0,0,79.71,72,7.29,7.29,0,0,0,77.54,70.33Z"/><polygon class="cls-9" points="67.59 61.2 61.91 61.2 60.92 67.73 68.55 67.61 67.59 61.2"/><path class="cls-9" d="M70.45,67A9.79,9.79,0,0,1,59.15,67l.86-.4,3.07-1.43,1.57-.72v-.08l.09,0,.08,0v.08l1.56.73,3.11,1.43Z"/><path class="cls-10" d="M59,44s-5.69,7.11-5.33,13,24.23,6.39,22.68-1.19-4.95-11.28-4.95-11.28Z"/><path class="cls-6" d="M71.53,52.29c-.33-2.48.82-7.18-2.08-8.33a11.06,11.06,0,0,0-4.71-.89A11.08,11.08,0,0,0,60,44c-2.9,1.15-1.75,5.85-2.07,8.33s1,8.15,2.35,10.08c.56.8,2.58,3.18,4.44,3.21s3.83-2.36,4.44-3.21C70.56,60.44,71.85,54.78,71.53,52.29Z"/><path class="cls-10" d="M72.2,55.5s-7.28,1.41-14.74-4.81l.3-4.31s1-5.08,7.25-4.6,6.69,3.53,6.69,3.53l.5,9.82"/><path class="cls-6" d="M71.38,55.63s1.25-.2,1.39.15c.3.74-.08,3.49-1.81,3.35S71.38,55.63,71.38,55.63Z"/><path class="cls-6" d="M58.23,54.76a4.56,4.56,0,0,0-.64,0c-.33,0-.68,0-.75.21-.3.73.08,3.48,1.81,3.34S58.23,54.76,58.23,54.76Z"/><path class="cls-10" d="M64.28,50.32s-2.39,4.23-6.6,4.39,2.87-6.27,2.87-6.27Z"/><path class="cls-11" d="M66.9,77.16A34.65,34.65,0,0,1,43.8,87.9c-.69,0-1.39.06-2.09.06s-1.47,0-2.19-.07A34.71,34.71,0,0,1,16.4,77.05,12.07,12.07,0,0,1,20,74.42l10.76-5,2.87-1.33,5.21-2.41,2.63-1.22v-.13l.16.07.14-.07v.13l2.64,1.23,5.24,2.42,2.84,1.31,10.76,5A12,12,0,0,1,66.9,77.16Z"/><polygon class="cls-5" points="47.66 54.86 35.62 54.86 33.52 68.7 49.68 68.43 47.66 54.86"/><path class="cls-6" d="M53.07,44c-.54-4.2,1.4-12.13-3.5-14.07a19,19,0,0,0-8-1.51,19,19,0,0,0-8,1.51c-4.9,1.94-3,9.87-3.5,14.07s2,13.54,4,17c3.63,6.33,12.13,5,15,0C51.1,57.5,53.62,48.15,53.07,44Z"/><polygon class="cls-7" points="40.9 72.39 38.44 70.73 41.6 66.29 44.97 70.87 42.48 72.39 41.04 72.39 40.9 72.39"/><polygon class="cls-12" points="30.74 69.43 34.13 64.7 41.6 66.29 39.2 72.39 30.74 69.43"/><polygon class="cls-12" points="52.47 69.43 49.08 64.7 41.6 66.29 44.01 72.39 52.47 69.43"/><path class="cls-7" d="M43.8,87.9c-.69,0-1.39.06-2.09.06s-1.47,0-2.19-.07l1.34-15.52L41,71.14l.64-.42v-.06l0,0,0,0v.06l.65.42.1,1.25Z"/><path class="cls-6" d="M34.16,47.62c0,2-1.3,3.69-2.91,3.69s-2.61-1.68-2.92-3.69c-.35-2.32.2-3.68,1.81-3.68S34.16,45.59,34.16,47.62Z"/><path class="cls-6" d="M49,47.62c0,2,1.3,3.69,2.91,3.69s2.61-1.68,2.92-3.69c.35-2.32-.2-3.68-1.81-3.68S49,45.59,49,47.62Z"/><path class="cls-4" d="M29.84,42.21s.42,3.76.67,3.74.69,0,.69,0l2-9.21s17.16,0,17.16-5.84c0-4.6-15.3-3.78-19.44.36C28.54,33.61,29.84,42.21,29.84,42.21Z"/><path class="cls-4" d="M53.71,42.21S53.29,46,53.05,46s-.69,0-.69,0l-2-9.21s-7.93-2.67-7.93-5.86c0-3.8,6.06-3.76,10.21.38C55,33.61,53.71,42.21,53.71,42.21Z"/><path class="cls-4" d="M31.2,41s2.73-.06,5-4.37c0,0,10.53,11.17,20.28.41,0,0-.32-1.82-3.3-5.06C45.65,23.77,29.56,29.46,31.2,41Z"/></g></svg>