<svg id="Layer_1" data-name="Layer 1" xmlns="http://www.w3.org/2000/svg" xmlns:xlink="http://www.w3.org/1999/xlink" viewBox="0 0 42.55 31.94"><defs><style>.cls-1{fill:url(#linear-gradient);}.cls-2{fill:url(#linear-gradient-2);}.cls-3{fill:url(#linear-gradient-3);}.cls-4{fill:url(#linear-gradient-4);}.cls-5{fill:url(#linear-gradient-5);}.cls-6{fill:url(#linear-gradient-6);}.cls-7{fill:url(#linear-gradient-7);}.cls-8{fill:#676767;}.cls-9{fill:url(#linear-gradient-8);}.cls-10{fill:url(#linear-gradient-9);}.cls-11{fill:url(#linear-gradient-10);}.cls-12{fill:url(#linear-gradient-11);}.cls-13{fill:url(#linear-gradient-12);}.cls-14{fill:url(#linear-gradient-13);}.cls-15{fill:url(#linear-gradient-14);}.cls-16{fill:url(#linear-gradient-15);}.cls-17{fill:url(#linear-gradient-16);}.cls-18{fill:url(#linear-gradient-17);}.cls-19{fill:url(#linear-gradient-18);}.cls-20{fill:url(#linear-gradient-19);}.cls-21{fill:url(#linear-gradient-20);}.cls-22{fill:url(#linear-gradient-21);}.cls-23{fill:url(#linear-gradient-22);}.cls-24{fill:url(#linear-gradient-23);}.cls-25{fill:url(#linear-gradient-24);}.cls-26{fill:url(#linear-gradient-25);}.cls-27{fill:url(#linear-gradient-26);}.cls-28{fill:url(#linear-gradient-27);}.cls-29{fill:url(#linear-gradient-28);}.cls-30{fill:url(#linear-gradient-29);}.cls-31{fill:url(#linear-gradient-30);}.cls-32{fill:url(#linear-gradient-31);}.cls-33{fill:url(#linear-gradient-32);}.cls-34{fill:url(#linear-gradient-33);}.cls-35{fill:url(#linear-gradient-34);}.cls-36{fill:url(#linear-gradient-35);}.cls-37{fill:url(#linear-gradient-36);}.cls-38{fill:url(#linear-gradient-37);}.cls-39{fill:url(#linear-gradient-38);}.cls-40{fill:url(#linear-gradient-39);}.cls-41{fill:url(#linear-gradient-40);}.cls-42{fill:url(#linear-gradient-41);}.cls-43{fill:url(#linear-gradient-42);}.cls-44{fill:url(#linear-gradient-43);}.cls-45{fill:url(#linear-gradient-44);}.cls-46{fill:url(#linear-gradient-45);}.cls-47{fill:url(#linear-gradient-46);}.cls-48{fill:url(#linear-gradient-47);}.cls-49{fill:url(#linear-gradient-48);}.cls-50{fill:url(#linear-gradient-49);}.cls-51{fill:url(#linear-gradient-50);}.cls-52{fill:url(#linear-gradient-51);}.cls-53{fill:url(#linear-gradient-52);}.cls-54{fill:url(#linear-gradient-53);}.cls-55{fill:url(#linear-gradient-54);}.cls-56{fill:url(#linear-gradient-55);}.cls-57{fill:url(#linear-gradient-56);}.cls-58{fill:url(#linear-gradient-57);}.cls-59{fill:url(#linear-gradient-58);}.cls-60{fill:url(#linear-gradient-59);}.cls-61{fill:url(#linear-gradient-60);}.cls-62{fill:url(#linear-gradient-61);}.cls-63{fill:url(#linear-gradient-62);}.cls-64{fill:url(#linear-gradient-63);}.cls-65{fill:url(#linear-gradient-64);}.cls-66{fill:url(#linear-gradient-65);}.cls-67{fill:url(#linear-gradient-66);}.cls-68{fill:url(#linear-gradient-67);}.cls-69{fill:url(#linear-gradient-68);}.cls-70{fill:url(#linear-gradient-69);}.cls-71{fill:url(#linear-gradient-70);}.cls-72{fill:url(#linear-gradient-71);}.cls-73{fill:url(#linear-gradient-72);}.cls-74{fill:url(#linear-gradient-73);}.cls-75{fill:url(#linear-gradient-74);}.cls-76{fill:url(#linear-gradient-75);}.cls-77{fill:url(#linear-gradient-76);}.cls-78{fill:url(#linear-gradient-77);}.cls-79{fill:url(#linear-gradient-78);}.cls-80{fill:url(#linear-gradient-79);}.cls-81{fill:url(#linear-gradient-80);}.cls-82{fill:url(#linear-gradient-81);}.cls-83{fill:url(#linear-gradient-82);}.cls-84{fill:url(#linear-gradient-83);}.cls-85{fill:url(#linear-gradient-84);}.cls-86{fill:url(#linear-gradient-85);}.cls-87{fill:url(#linear-gradient-86);}.cls-88{fill:url(#linear-gradient-87);}.cls-89{fill:url(#linear-gradient-88);}.cls-90{fill:url(#linear-gradient-89);}.cls-91{fill:url(#linear-gradient-90);}.cls-92{fill:url(#linear-gradient-91);}.cls-93{fill:url(#linear-gradient-92);}.cls-94{fill:url(#linear-gradient-93);}.cls-95{fill:url(#linear-gradient-94);}.cls-96{fill:url(#linear-gradient-95);}.cls-97{fill:url(#linear-gradient-96);}.cls-98{fill:url(#linear-gradient-97);}.cls-99{fill:url(#linear-gradient-98);}.cls-100{fill:url(#linear-gradient-99);}.cls-101{fill:url(#linear-gradient-100);}.cls-102{fill:url(#linear-gradient-101);}.cls-103{fill:url(#linear-gradient-102);}.cls-104{fill:url(#linear-gradient-103);}.cls-105{fill:url(#linear-gradient-104);}.cls-106{fill:url(#linear-gradient-105);}.cls-107{fill:url(#linear-gradient-106);}.cls-108{fill:url(#linear-gradient-107);}.cls-109{fill:url(#linear-gradient-108);}.cls-110{fill:url(#linear-gradient-109);}.cls-111{fill:url(#linear-gradient-110);}.cls-112{fill:url(#linear-gradient-111);}.cls-113{fill:url(#linear-gradient-112);}.cls-114{fill:url(#linear-gradient-113);}.cls-115{fill:url(#linear-gradient-114);}.cls-116{fill:url(#linear-gradient-115);}.cls-117{fill:url(#linear-gradient-116);}.cls-118{fill:url(#linear-gradient-117);}.cls-119{fill:url(#linear-gradient-118);}.cls-120{fill:url(#linear-gradient-119);}.cls-121{fill:url(#linear-gradient-120);}.cls-122{fill:url(#linear-gradient-121);}.cls-123{fill:url(#linear-gradient-122);}.cls-124{fill:url(#linear-gradient-123);}.cls-125{fill:url(#linear-gradient-124);}.cls-126{fill:url(#linear-gradient-125);}.cls-127{fill:url(#linear-gradient-126);}.cls-128{fill:url(#linear-gradient-127);}.cls-129{fill:url(#linear-gradient-128);}.cls-130{fill:url(#linear-gradient-129);}.cls-131{fill:url(#linear-gradient-130);}.cls-132{fill:url(#linear-gradient-131);}.cls-133{fill:url(#linear-gradient-132);}.cls-134{fill:url(#linear-gradient-133);}.cls-135{fill:url(#linear-gradient-134);}.cls-136{fill:url(#linear-gradient-135);}.cls-137{fill:url(#linear-gradient-136);}.cls-138{fill:url(#linear-gradient-137);}.cls-139{fill:url(#linear-gradient-138);}.cls-140{fill:url(#linear-gradient-139);}.cls-141{fill:url(#linear-gradient-140);}.cls-142{fill:url(#linear-gradient-141);}.cls-143{fill:url(#linear-gradient-142);}.cls-144{fill:url(#linear-gradient-143);}.cls-145{fill:url(#linear-gradient-144);}.cls-146{fill:url(#linear-gradient-145);}.cls-147{fill:#333;}.cls-148{fill:url(#linear-gradient-146);}.cls-149{fill:url(#linear-gradient-147);}.cls-150{fill:url(#linear-gradient-148);}.cls-151{fill:url(#linear-gradient-149);}.cls-152{fill:url(#linear-gradient-150);}</style><linearGradient id="linear-gradient" x1="21.28" y1="27.3" x2="21.28" y2="43.19" gradientTransform="matrix(1, 0, 0, -1, 0, 51.22)" gradientUnits="userSpaceOnUse"><stop offset="0" stop-color="#ccc"/><stop offset="0.83" stop-color="#b4b4b4"/><stop offset="0.94" stop-color="#e6e6e5"/><stop offset="1" stop-color="#676767"/></linearGradient><linearGradient id="linear-gradient-2" x1="20.13" y1="27.78" x2="20.13" y2="30.1" gradientTransform="matrix(1, 0, 0, -1, 0, 51.22)" gradientUnits="userSpaceOnUse"><stop offset="0" stop-color="#1a1a1a"/><stop offset="1" stop-color="#595a5a"/></linearGradient><linearGradient id="linear-gradient-3" x1="20.13" y1="27.87" x2="20.13" y2="30.01" gradientTransform="matrix(1, 0, 0, -1, 0, 51.22)" gradientUnits="userSpaceOnUse"><stop offset="0" stop-color="#ccc"/><stop offset="1" stop-color="#f7f8f8"/></linearGradient><linearGradient id="linear-gradient-4" x1="35.97" y1="32.57" x2="35.97" y2="34.57" xlink:href="#linear-gradient-2"/><linearGradient id="linear-gradient-5" x1="35.96" y1="32.65" x2="35.96" y2="34.49" xlink:href="#linear-gradient-3"/><linearGradient id="linear-gradient-6" x1="12.94" y1="27.78" x2="12.94" y2="30.1" xlink:href="#linear-gradient-2"/><linearGradient id="linear-gradient-7" x1="12.93" y1="27.89" x2="12.93" y2="30" xlink:href="#linear-gradient-3"/><linearGradient id="linear-gradient-8" x1="10.35" y1="27.78" x2="10.35" y2="30.1" xlink:href="#linear-gradient-2"/><linearGradient id="linear-gradient-9" x1="10.35" y1="27.89" x2="10.35" y2="30" xlink:href="#linear-gradient-3"/><linearGradient id="linear-gradient-10" x1="27.29" y1="27.78" x2="27.29" y2="30.1" xlink:href="#linear-gradient-2"/><linearGradient id="linear-gradient-11" x1="27.3" y1="27.89" x2="27.3" y2="30" xlink:href="#linear-gradient-3"/><linearGradient id="linear-gradient-12" x1="29.91" y1="27.78" x2="29.91" y2="30.1" xlink:href="#linear-gradient-2"/><linearGradient id="linear-gradient-13" x1="29.91" y1="27.89" x2="29.91" y2="30" xlink:href="#linear-gradient-3"/><linearGradient id="linear-gradient-14" x1="8.05" y1="27.78" x2="8.05" y2="30.1" xlink:href="#linear-gradient-2"/><linearGradient id="linear-gradient-15" x1="8.05" y1="27.89" x2="8.05" y2="30" xlink:href="#linear-gradient-3"/><linearGradient id="linear-gradient-16" x1="5.73" y1="27.78" x2="5.73" y2="30.1" xlink:href="#linear-gradient-2"/><linearGradient id="linear-gradient-17" x1="5.73" y1="27.89" x2="5.73" y2="30" xlink:href="#linear-gradient-3"/><linearGradient id="linear-gradient-18" x1="7.19" y1="30.33" x2="7.19" y2="32.33" xlink:href="#linear-gradient-2"/><linearGradient id="linear-gradient-19" x1="7.19" y1="30.41" x2="7.19" y2="32.25" xlink:href="#linear-gradient-3"/><linearGradient id="linear-gradient-20" x1="35.35" y1="30.33" x2="35.35" y2="32.33" xlink:href="#linear-gradient-2"/><linearGradient id="linear-gradient-21" x1="35.35" y1="30.41" x2="35.35" y2="32.25" xlink:href="#linear-gradient-3"/><linearGradient id="linear-gradient-22" x1="10.92" y1="30.33" x2="10.92" y2="32.33" xlink:href="#linear-gradient-2"/><linearGradient id="linear-gradient-23" x1="10.92" y1="30.41" x2="10.92" y2="32.25" xlink:href="#linear-gradient-3"/><linearGradient id="linear-gradient-24" x1="13.23" y1="30.33" x2="13.23" y2="32.33" xlink:href="#linear-gradient-2"/><linearGradient id="linear-gradient-25" x1="13.23" y1="30.41" x2="13.23" y2="32.25" xlink:href="#linear-gradient-3"/><linearGradient id="linear-gradient-26" x1="15.53" y1="30.33" x2="15.53" y2="32.33" xlink:href="#linear-gradient-2"/><linearGradient id="linear-gradient-27" x1="15.53" y1="30.41" x2="15.53" y2="32.25" xlink:href="#linear-gradient-3"/><linearGradient id="linear-gradient-28" x1="17.84" y1="30.33" x2="17.84" y2="32.33" xlink:href="#linear-gradient-2"/><linearGradient id="linear-gradient-29" x1="17.84" y1="30.41" x2="17.84" y2="32.25" xlink:href="#linear-gradient-3"/><linearGradient id="linear-gradient-30" x1="20.14" y1="30.33" x2="20.14" y2="32.33" xlink:href="#linear-gradient-2"/><linearGradient id="linear-gradient-31" x1="20.14" y1="30.41" x2="20.14" y2="32.25" xlink:href="#linear-gradient-3"/><linearGradient id="linear-gradient-32" x1="22.43" y1="30.33" x2="22.43" y2="32.33" xlink:href="#linear-gradient-2"/><linearGradient id="linear-gradient-33" x1="22.43" y1="30.41" x2="22.43" y2="32.25" xlink:href="#linear-gradient-3"/><linearGradient id="linear-gradient-34" x1="24.74" y1="30.33" x2="24.74" y2="32.33" xlink:href="#linear-gradient-2"/><linearGradient id="linear-gradient-35" x1="24.74" y1="30.41" x2="24.74" y2="32.25" xlink:href="#linear-gradient-3"/><linearGradient id="linear-gradient-36" x1="31.65" y1="30.33" x2="31.65" y2="32.33" xlink:href="#linear-gradient-2"/><linearGradient id="linear-gradient-37" x1="31.65" y1="30.41" x2="31.65" y2="32.25" xlink:href="#linear-gradient-3"/><linearGradient id="linear-gradient-38" x1="29.35" y1="30.33" x2="29.35" y2="32.33" xlink:href="#linear-gradient-2"/><linearGradient id="linear-gradient-39" x1="29.34" y1="30.41" x2="29.34" y2="32.25" xlink:href="#linear-gradient-3"/><linearGradient id="linear-gradient-40" x1="27.04" y1="30.33" x2="27.04" y2="32.33" xlink:href="#linear-gradient-2"/><linearGradient id="linear-gradient-41" x1="27.04" y1="30.41" x2="27.04" y2="32.25" xlink:href="#linear-gradient-3"/><linearGradient id="linear-gradient-42" x1="9.74" y1="32.58" x2="9.74" y2="34.58" xlink:href="#linear-gradient-2"/><linearGradient id="linear-gradient-43" x1="9.74" y1="32.66" x2="9.74" y2="34.5" xlink:href="#linear-gradient-3"/><linearGradient id="linear-gradient-44" x1="12.05" y1="32.58" x2="12.05" y2="34.58" xlink:href="#linear-gradient-2"/><linearGradient id="linear-gradient-45" x1="12.04" y1="32.66" x2="12.04" y2="34.5" xlink:href="#linear-gradient-3"/><linearGradient id="linear-gradient-46" x1="14.35" y1="32.58" x2="14.35" y2="34.58" xlink:href="#linear-gradient-2"/><linearGradient id="linear-gradient-47" x1="14.35" y1="32.66" x2="14.35" y2="34.5" xlink:href="#linear-gradient-3"/><linearGradient id="linear-gradient-48" x1="16.65" y1="32.58" x2="16.65" y2="34.58" xlink:href="#linear-gradient-2"/><linearGradient id="linear-gradient-49" x1="16.65" y1="32.66" x2="16.65" y2="34.5" xlink:href="#linear-gradient-3"/><linearGradient id="linear-gradient-50" x1="18.96" y1="32.58" x2="18.96" y2="34.58" xlink:href="#linear-gradient-2"/><linearGradient id="linear-gradient-51" x1="18.96" y1="32.66" x2="18.96" y2="34.5" xlink:href="#linear-gradient-3"/><linearGradient id="linear-gradient-52" x1="21.25" y1="32.58" x2="21.25" y2="34.58" xlink:href="#linear-gradient-2"/><linearGradient id="linear-gradient-53" x1="21.25" y1="32.66" x2="21.25" y2="34.5" xlink:href="#linear-gradient-3"/><linearGradient id="linear-gradient-54" x1="23.55" y1="32.58" x2="23.55" y2="34.58" xlink:href="#linear-gradient-2"/><linearGradient id="linear-gradient-55" x1="23.55" y1="32.66" x2="23.55" y2="34.5" xlink:href="#linear-gradient-3"/><linearGradient id="linear-gradient-56" x1="25.86" y1="32.58" x2="25.86" y2="34.58" xlink:href="#linear-gradient-2"/><linearGradient id="linear-gradient-57" x1="25.85" y1="32.66" x2="25.85" y2="34.5" xlink:href="#linear-gradient-3"/><linearGradient id="linear-gradient-58" x1="28.16" y1="32.58" x2="28.16" y2="34.58" xlink:href="#linear-gradient-2"/><linearGradient id="linear-gradient-59" x1="28.16" y1="32.66" x2="28.16" y2="34.5" xlink:href="#linear-gradient-3"/><linearGradient id="linear-gradient-60" x1="30.47" y1="32.58" x2="30.47" y2="34.58" xlink:href="#linear-gradient-2"/><linearGradient id="linear-gradient-61" x1="30.47" y1="32.66" x2="30.47" y2="34.5" xlink:href="#linear-gradient-3"/><linearGradient id="linear-gradient-62" x1="32.77" y1="32.58" x2="32.77" y2="34.58" xlink:href="#linear-gradient-2"/><linearGradient id="linear-gradient-63" x1="32.77" y1="32.66" x2="32.77" y2="34.5" xlink:href="#linear-gradient-3"/><linearGradient id="linear-gradient-64" x1="9.18" y1="34.8" x2="9.18" y2="36.8" xlink:href="#linear-gradient-2"/><linearGradient id="linear-gradient-65" x1="9.18" y1="34.88" x2="9.18" y2="36.72" xlink:href="#linear-gradient-3"/><linearGradient id="linear-gradient-66" x1="11.49" y1="34.8" x2="11.49" y2="36.8" xlink:href="#linear-gradient-2"/><linearGradient id="linear-gradient-67" x1="11.49" y1="34.88" x2="11.49" y2="36.72" xlink:href="#linear-gradient-3"/><linearGradient id="linear-gradient-68" x1="13.79" y1="34.8" x2="13.79" y2="36.8" xlink:href="#linear-gradient-2"/><linearGradient id="linear-gradient-69" x1="13.79" y1="34.88" x2="13.79" y2="36.72" xlink:href="#linear-gradient-3"/><linearGradient id="linear-gradient-70" x1="16.1" y1="34.8" x2="16.1" y2="36.8" xlink:href="#linear-gradient-2"/><linearGradient id="linear-gradient-71" x1="16.1" y1="34.88" x2="16.1" y2="36.72" xlink:href="#linear-gradient-3"/><linearGradient id="linear-gradient-72" x1="18.4" y1="34.8" x2="18.4" y2="36.8" xlink:href="#linear-gradient-2"/><linearGradient id="linear-gradient-73" x1="18.4" y1="34.88" x2="18.4" y2="36.72" xlink:href="#linear-gradient-3"/><linearGradient id="linear-gradient-74" x1="20.69" y1="34.8" x2="20.69" y2="36.8" xlink:href="#linear-gradient-2"/><linearGradient id="linear-gradient-75" x1="20.69" y1="34.88" x2="20.69" y2="36.72" xlink:href="#linear-gradient-3"/><linearGradient id="linear-gradient-76" x1="22.99" y1="34.8" x2="22.99" y2="36.8" xlink:href="#linear-gradient-2"/><linearGradient id="linear-gradient-77" x1="22.99" y1="34.88" x2="22.99" y2="36.72" xlink:href="#linear-gradient-3"/><linearGradient id="linear-gradient-78" x1="25.3" y1="34.8" x2="25.3" y2="36.8" xlink:href="#linear-gradient-2"/><linearGradient id="linear-gradient-79" x1="25.3" y1="34.88" x2="25.3" y2="36.72" xlink:href="#linear-gradient-3"/><linearGradient id="linear-gradient-80" x1="27.6" y1="34.8" x2="27.6" y2="36.8" xlink:href="#linear-gradient-2"/><linearGradient id="linear-gradient-81" x1="27.6" y1="34.88" x2="27.6" y2="36.72" xlink:href="#linear-gradient-3"/><linearGradient id="linear-gradient-82" x1="29.91" y1="34.8" x2="29.91" y2="36.8" xlink:href="#linear-gradient-2"/><linearGradient id="linear-gradient-83" x1="29.91" y1="34.88" x2="29.91" y2="36.72" xlink:href="#linear-gradient-3"/><linearGradient id="linear-gradient-84" x1="32.22" y1="34.8" x2="32.22" y2="36.8" xlink:href="#linear-gradient-2"/><linearGradient id="linear-gradient-85" x1="32.21" y1="34.88" x2="32.21" y2="36.72" xlink:href="#linear-gradient-3"/><linearGradient id="linear-gradient-86" x1="34.52" y1="34.8" x2="34.52" y2="36.8" xlink:href="#linear-gradient-2"/><linearGradient id="linear-gradient-87" x1="34.52" y1="34.88" x2="34.52" y2="36.72" xlink:href="#linear-gradient-3"/><linearGradient id="linear-gradient-88" x1="6.31" y1="34.81" x2="6.31" y2="36.81" xlink:href="#linear-gradient-2"/><linearGradient id="linear-gradient-89" x1="6.3" y1="34.89" x2="6.3" y2="36.73" xlink:href="#linear-gradient-3"/><linearGradient id="linear-gradient-90" x1="33.37" y1="37.06" x2="33.37" y2="39.06" xlink:href="#linear-gradient-2"/><linearGradient id="linear-gradient-91" x1="33.37" y1="37.14" x2="33.37" y2="38.98" xlink:href="#linear-gradient-3"/><linearGradient id="linear-gradient-92" x1="12.65" y1="37.06" x2="12.65" y2="39.06" xlink:href="#linear-gradient-2"/><linearGradient id="linear-gradient-93" x1="12.65" y1="37.14" x2="12.65" y2="38.98" xlink:href="#linear-gradient-3"/><linearGradient id="linear-gradient-94" x1="5.74" y1="37.06" x2="5.74" y2="39.06" xlink:href="#linear-gradient-2"/><linearGradient id="linear-gradient-95" x1="5.73" y1="37.14" x2="5.73" y2="38.98" xlink:href="#linear-gradient-3"/><linearGradient id="linear-gradient-96" x1="8.04" y1="37.06" x2="8.04" y2="39.06" xlink:href="#linear-gradient-2"/><linearGradient id="linear-gradient-97" x1="8.04" y1="37.14" x2="8.04" y2="38.98" xlink:href="#linear-gradient-3"/><linearGradient id="linear-gradient-98" x1="10.34" y1="37.06" x2="10.34" y2="39.06" xlink:href="#linear-gradient-2"/><linearGradient id="linear-gradient-99" x1="10.34" y1="37.14" x2="10.34" y2="38.98" xlink:href="#linear-gradient-3"/><linearGradient id="linear-gradient-100" x1="14.95" y1="37.06" x2="14.95" y2="39.06" xlink:href="#linear-gradient-2"/><linearGradient id="linear-gradient-101" x1="14.95" y1="37.14" x2="14.95" y2="38.98" xlink:href="#linear-gradient-3"/><linearGradient id="linear-gradient-102" x1="17.24" y1="37.06" x2="17.24" y2="39.06" xlink:href="#linear-gradient-2"/><linearGradient id="linear-gradient-103" x1="17.24" y1="37.14" x2="17.24" y2="38.98" xlink:href="#linear-gradient-3"/><linearGradient id="linear-gradient-104" x1="19.55" y1="37.06" x2="19.55" y2="39.06" xlink:href="#linear-gradient-2"/><linearGradient id="linear-gradient-105" x1="19.54" y1="37.14" x2="19.54" y2="38.98" xlink:href="#linear-gradient-3"/><linearGradient id="linear-gradient-106" x1="21.85" y1="37.06" x2="21.85" y2="39.06" xlink:href="#linear-gradient-2"/><linearGradient id="linear-gradient-107" x1="21.85" y1="37.14" x2="21.85" y2="38.98" xlink:href="#linear-gradient-3"/><linearGradient id="linear-gradient-108" x1="26.46" y1="37.06" x2="26.46" y2="39.06" xlink:href="#linear-gradient-2"/><linearGradient id="linear-gradient-109" x1="26.46" y1="37.14" x2="26.46" y2="38.98" xlink:href="#linear-gradient-3"/><linearGradient id="linear-gradient-110" x1="28.77" y1="37.06" x2="28.77" y2="39.06" xlink:href="#linear-gradient-2"/><linearGradient id="linear-gradient-111" x1="28.77" y1="37.14" x2="28.77" y2="38.98" xlink:href="#linear-gradient-3"/><linearGradient id="linear-gradient-112" x1="36.24" y1="37.06" x2="36.24" y2="39.06" xlink:href="#linear-gradient-2"/><linearGradient id="linear-gradient-113" x1="36.23" y1="37.14" x2="36.23" y2="38.98" xlink:href="#linear-gradient-3"/><linearGradient id="linear-gradient-114" x1="20.08" y1="39.28" x2="20.08" y2="40.62" xlink:href="#linear-gradient-2"/><linearGradient id="linear-gradient-115" x1="20.08" y1="39.38" x2="20.08" y2="40.52" xlink:href="#linear-gradient-3"/><linearGradient id="linear-gradient-116" x1="17.72" y1="39.28" x2="17.72" y2="40.62" xlink:href="#linear-gradient-2"/><linearGradient id="linear-gradient-117" x1="17.72" y1="39.38" x2="17.72" y2="40.52" xlink:href="#linear-gradient-3"/><linearGradient id="linear-gradient-118" x1="5.78" y1="39.28" x2="5.78" y2="40.62" xlink:href="#linear-gradient-2"/><linearGradient id="linear-gradient-119" x1="5.78" y1="39.38" x2="5.78" y2="40.52" xlink:href="#linear-gradient-3"/><linearGradient id="linear-gradient-120" x1="8.15" y1="39.28" x2="8.15" y2="40.62" xlink:href="#linear-gradient-2"/><linearGradient id="linear-gradient-121" x1="8.15" y1="39.38" x2="8.15" y2="40.52" xlink:href="#linear-gradient-3"/><linearGradient id="linear-gradient-122" x1="10.55" y1="39.28" x2="10.55" y2="40.62" xlink:href="#linear-gradient-2"/><linearGradient id="linear-gradient-123" x1="10.55" y1="39.38" x2="10.55" y2="40.52" xlink:href="#linear-gradient-3"/><linearGradient id="linear-gradient-124" x1="12.95" y1="39.28" x2="12.95" y2="40.62" xlink:href="#linear-gradient-2"/><linearGradient id="linear-gradient-125" x1="12.95" y1="39.38" x2="12.95" y2="40.52" xlink:href="#linear-gradient-3"/><linearGradient id="linear-gradient-126" x1="15.32" y1="39.28" x2="15.32" y2="40.62" xlink:href="#linear-gradient-2"/><linearGradient id="linear-gradient-127" x1="15.32" y1="39.38" x2="15.32" y2="40.52" xlink:href="#linear-gradient-3"/><linearGradient id="linear-gradient-128" x1="22.48" y1="39.28" x2="22.48" y2="40.62" xlink:href="#linear-gradient-2"/><linearGradient id="linear-gradient-129" x1="22.48" y1="39.38" x2="22.48" y2="40.52" xlink:href="#linear-gradient-3"/><linearGradient id="linear-gradient-130" x1="27.25" y1="39.28" x2="27.25" y2="40.62" xlink:href="#linear-gradient-2"/><linearGradient id="linear-gradient-131" x1="27.25" y1="39.38" x2="27.25" y2="40.52" xlink:href="#linear-gradient-3"/><linearGradient id="linear-gradient-132" x1="24.88" y1="39.28" x2="24.88" y2="40.62" xlink:href="#linear-gradient-2"/><linearGradient id="linear-gradient-133" x1="24.88" y1="39.38" x2="24.88" y2="40.52" xlink:href="#linear-gradient-3"/><linearGradient id="linear-gradient-134" x1="29.65" y1="39.28" x2="29.65" y2="40.62" xlink:href="#linear-gradient-2"/><linearGradient id="linear-gradient-135" x1="29.65" y1="39.38" x2="29.65" y2="40.52" xlink:href="#linear-gradient-3"/><linearGradient id="linear-gradient-136" x1="32.01" y1="39.28" x2="32.01" y2="40.62" xlink:href="#linear-gradient-2"/><linearGradient id="linear-gradient-137" x1="32" y1="39.38" x2="32" y2="40.52" xlink:href="#linear-gradient-3"/><linearGradient id="linear-gradient-138" x1="34.37" y1="39.28" x2="34.37" y2="40.62" xlink:href="#linear-gradient-2"/><linearGradient id="linear-gradient-139" x1="34.37" y1="39.38" x2="34.37" y2="40.52" xlink:href="#linear-gradient-3"/><linearGradient id="linear-gradient-140" x1="31.07" y1="37.06" x2="31.07" y2="39.06" xlink:href="#linear-gradient-2"/><linearGradient id="linear-gradient-141" x1="31.07" y1="37.14" x2="31.07" y2="38.98" xlink:href="#linear-gradient-3"/><linearGradient id="linear-gradient-142" x1="24.16" y1="37.06" x2="24.16" y2="39.06" xlink:href="#linear-gradient-2"/><linearGradient id="linear-gradient-143" x1="24.16" y1="37.14" x2="24.16" y2="38.98" xlink:href="#linear-gradient-3"/><linearGradient id="linear-gradient-144" x1="6.62" y1="32.57" x2="6.62" y2="34.57" xlink:href="#linear-gradient-2"/><linearGradient id="linear-gradient-145" x1="6.61" y1="32.65" x2="6.61" y2="34.49" xlink:href="#linear-gradient-3"/><linearGradient id="linear-gradient-146" x1="34.53" y1="27.78" x2="34.53" y2="30.09" xlink:href="#linear-gradient-2"/><linearGradient id="linear-gradient-147" x1="34.53" y1="28.99" x2="34.53" y2="30.01" xlink:href="#linear-gradient-3"/><linearGradient id="linear-gradient-148" x1="34.53" y1="27.87" x2="34.53" y2="28.89" xlink:href="#linear-gradient-3"/><linearGradient id="linear-gradient-149" x1="32.2" y1="27.78" x2="32.2" y2="28.98" xlink:href="#linear-gradient-2"/><linearGradient id="linear-gradient-150" x1="32.2" y1="27.86" x2="32.2" y2="28.9" xlink:href="#linear-gradient-3"/></defs><path class="cls-1" d="M38.29,8.84A1.92,1.92,0,0,0,38.2,8H4.47a1.2,1.2,0,0,0-.22.82V23.09a.83.83,0,0,0,.81.83H37.47a.83.83,0,0,0,.82-.83Z"/><rect class="cls-2" x="14.5" y="21.12" width="11.26" height="2.32" rx="0.29"/><rect class="cls-3" x="14.57" y="21.21" width="11.12" height="2.14" rx="0.19"/><rect class="cls-4" x="34.08" y="16.65" width="3.78" height="2" rx="0.24"/><rect class="cls-5" x="34.18" y="16.73" width="3.57" height="1.84" rx="0.19"/><rect class="cls-6" x="11.61" y="21.11" width="2.65" height="2.32" rx="0.29"/><rect class="cls-7" x="11.7" y="21.22" width="2.47" height="2.12" rx="0.15"/><path class="cls-8" d="M12.14,23h0A.11.11,0,0,1,12,23a.11.11,0,0,1,0-.08v0h0l0,0h0v.06a.11.11,0,0,0,0,.07h.1Z"/><path class="cls-8" d="M12.27,23.05H12.2v-.16l0,0h.09a0,0,0,0,1,0,0v.16h-.07Zm0,0h.05a.09.09,0,0,0,0-.07.06.06,0,0,0,0-.06l-.05,0a.06.06,0,0,0,0,0V23Z"/><path class="cls-8" d="M12.43,22.84h0v0h.17a.09.09,0,0,1,0,.07v.13h.06v-.17a0,0,0,0,0,0,0h0V23h-.08v-.13a0,0,0,0,0,0-.05h-.07V23h0Z"/><path class="cls-8" d="M12.77,22.84h0v0H13v.2h0v-.13a0,0,0,0,0,0,0s0,0,0,0h0V23H12.9v-.17a0,0,0,0,0,0,0h0V23h0Z"/><path class="cls-8" d="M13.23,22.91a0,0,0,0,0,0-.05h-.06v0h.11a.06.06,0,0,1,0,.06V23h-.07a.06.06,0,0,1-.06,0,0,0,0,0,1,0-.05v0h.12Zm0,0h-.09v0h.07Z"/><path class="cls-8" d="M13.32,22.84h0v0h.13v.2h0v-.17s0,0,0,0h0v0a0,0,0,0,0,0,0V23h0Z"/><path class="cls-8" d="M13.7,22.75h0V23h-.15l0,0a0,0,0,0,1,0-.05,0,0,0,0,1,0-.05.08.08,0,0,1,0,0l0,0h.09Zm0,.11h-.1v0s0,0,0,0V23h.1Z"/><rect class="cls-9" x="9.31" y="21.11" width="2.07" height="2.32" rx="0.29"/><rect class="cls-10" x="9.4" y="21.22" width="1.89" height="2.12" rx="0.15"/><path class="cls-8" d="M9.74,21.6v0h0a0,0,0,0,1,0,0,0,0,0,0,1,0,0v.11h-.1s0,0,0,0h.08Zm0,0h0Z"/><path class="cls-8" d="M9.82,21.47h0v.2h0v-.22Z"/><path class="cls-8" d="M9.9,21.54h0v0h0v0h0v.12h0v0Z"/><path class="cls-8" d="M9.74,23h0a0,0,0,0,1,0,0v0s0,0,0,0a0,0,0,0,1,0,0,0,0,0,0,1,0,0,0,0,0,0,1,0,0h.08a0,0,0,0,1,0,0V23a0,0,0,0,1,0,0Zm0,0s0,0,0,0a.15.15,0,0,0,0-.13.08.08,0,0,0-.08,0l0,0a.15.15,0,0,0,0,.13Z"/><path class="cls-8" d="M9.9,22.83h0v0l0,0H10V23H9.93v.1h0Zm0,.18H10v-.07a.06.06,0,0,0,0-.06H9.94V23Z"/><path class="cls-8" d="M10.14,22.86h0v0l0,0h0v.06h0V23h0v-.14Z"/><path class="cls-8" d="M10.29,22.86h0v.22h0Zm0-.07v0h0v0h0Z"/><path class="cls-8" d="M10.47,23H10.4V23a0,0,0,0,1,0,0,0,0,0,0,1,0,0h.11a0,0,0,0,1,0,0V23a0,0,0,0,1,0,0Zm0,0s0,0,0,0a.15.15,0,0,0,0-.13.08.08,0,0,0-.08,0l0,0a.15.15,0,0,0,0,.13Z"/><path class="cls-8" d="M10.62,22.83h.05a.06.06,0,0,1,.08,0s0,0,0,.05a.09.09,0,0,1,0,.07v.13h0v-.13a0,0,0,0,0,0-.05h-.07a0,0,0,0,0,0,0,0,0,0,0,0,0,0v.11h0Z"/><rect class="cls-11" x="25.97" y="21.11" width="2.65" height="2.32" rx="0.29"/><rect class="cls-12" x="26.06" y="21.22" width="2.47" height="2.12" rx="0.15"/><path class="cls-8" d="M26.67,23h0a.1.1,0,0,1-.11-.11v-.08l0,0h0v.06a.07.07,0,0,0,0,.06,0,0,0,0,0,.05,0h.05Z"/><path class="cls-8" d="M26.81,23.05h-.07v-.16s0,0,0,0h.08a0,0,0,0,1,0,0v.16h-.07Zm0,0h.05V22.9l-.05,0s0,0,0,0a.06.06,0,0,0,0,.06.09.09,0,0,0,0,.07Z"/><path class="cls-8" d="M27,22.84h0v0h.13a.09.09,0,0,1,0,.07v.13h0v-.13a0,0,0,0,0,0,0,0,0,0,0,0,0,0h0V23h0v-.13l0-.05h0V23h0Z"/><path class="cls-8" d="M27.31,22.84h0v0h.1v.2h0v-.13a0,0,0,0,0,0,0,.05.05,0,0,0,.06,0,.08.08,0,0,0,.05-.07h0a0,0,0,0,0,0,0V23h0v-.17a0,0,0,0,0,0,0h0s0,0,0,0,0,0,0,0V23h0Z"/><path class="cls-8" d="M27.77,22.91a0,0,0,0,0-.05-.05h-.06v0h.12a.06.06,0,0,1,0,.06V23H27.7a0,0,0,0,1-.05,0,.07.07,0,0,1,0-.05v0h.15Zm0,0h-.09v0h.07Z"/><path class="cls-8" d="M27.86,22.84h0v0H28v.2h0v-.13a0,0,0,0,0,0,0s0,0,0,0h0V23h0Z"/><path class="cls-8" d="M28.24,22.75h0V23h-.14l0,0v-.1s0,0,0,0l0,0h.1Zm0,.11h-.11V23h.1Z"/><rect class="cls-13" x="28.87" y="21.11" width="2.07" height="2.32" rx="0.29"/><rect class="cls-14" x="28.96" y="21.22" width="1.89" height="2.12" rx="0.15"/><path class="cls-8" d="M30.4,21.6v0h0a0,0,0,0,1,0,0,0,0,0,0,1,0,0v.11h-.09s0,0,0,0h.06Zm0,0h0Z"/><path class="cls-8" d="M30.47,21.47h0v.2h0Z"/><path class="cls-8" d="M30.59,21.54h0v0h0v0h0v.12h0a0,0,0,0,1,0,0,0,0,0,0,1,0,0Z"/><path class="cls-8" d="M29.58,23h0a0,0,0,0,1,0,0v-.15a0,0,0,0,1,0,0h.09s0,0,0,0a0,0,0,0,1,0,0,0,0,0,0,1,0,0s0,0,0,0v0s0,0,0,0Zm0,0,.06,0a.29.29,0,0,0,0-.13l-.06,0,0,0a.29.29,0,0,0,0,.13Z"/><path class="cls-8" d="M29.74,22.83h0v0h.11V23h-.08v.1h0Zm0,.18h.1v-.13H29.8v0Z"/><path class="cls-8" d="M30,22.86h0v0l0,0h0v.06h0V23h0a0,0,0,0,1,0,0Z"/><path class="cls-8" d="M30.15,22.86h0v.22h0Zm0-.07v0h0v0h0Z"/><path class="cls-8" d="M30.31,23h0a0,0,0,0,1,0,0v-.15a0,0,0,0,1,0,0h.08a0,0,0,0,1,0,0,0,0,0,0,1,0,0,0,0,0,0,1,0,0s0,0,0,0a0,0,0,0,1,0,0,0,0,0,0,1,0,0Zm0,0s0,0,.05,0a.11.11,0,0,0,0-.13.08.08,0,0,0-.08,0l0,0a.15.15,0,0,0,0,.13Z"/><path class="cls-8" d="M30.47,22.83h0v0h.1a.05.05,0,0,1,.05,0,.06.06,0,0,1,0,.06v.13h0V23a.08.08,0,0,0,0-.1h0V23h0Z"/><rect class="cls-15" x="7.02" y="21.11" width="2.07" height="2.32" rx="0.29"/><rect class="cls-16" x="7.11" y="21.22" width="1.89" height="2.12" rx="0.15"/><path class="cls-8" d="M7.5,23H7.44a.11.11,0,0,1-.07,0,.11.11,0,0,1,0-.08v0a.08.08,0,0,1,0,0l0,0h0v.06a0,0,0,0,0,0,.06,0,0,0,0,0,.05,0h0Z"/><path class="cls-8" d="M7.63,23.05H7.56v-.16l0,0H7.7s0,0,0,0a0,0,0,0,1,0,0,0,0,0,0,1,0,0,0,0,0,0,1,0,0h0A.09.09,0,0,1,7.63,23.05Zm0,0h0a.09.09,0,0,0,0-.07.12.12,0,0,0,0-.1l0,0-.06,0V23Z"/><path class="cls-8" d="M7.79,22.84h0v0h.08v.2h0v-.13a0,0,0,0,0,0,0,0,0,0,0,0,0,0h0v.16h0Z"/><path class="cls-8" d="M8,22.86H8v0l0,0h0v.06h0V23H8v-.14Z"/><path class="cls-8" d="M8.14,22.84h0v0l0,0s0,0,0,0h0v0H8.18V23h0Z"/><path class="cls-8" d="M8.38,23.05H8.31s0,0,0,0a0,0,0,0,1,0,0v0s0,0,0,0l0,0h.08l0,0v.16H8.38Zm0,0h0a.09.09,0,0,0,0-.07.06.06,0,0,0,0-.06l0,0s0,0-.05,0a.06.06,0,0,0,0,.06.09.09,0,0,0,0,.07Z"/><path class="cls-8" d="M8.54,22.75h0V23h0v-.28Z"/><rect class="cls-17" x="4.7" y="21.11" width="2.07" height="2.32" rx="0.29"/><rect class="cls-18" x="4.79" y="21.22" width="1.89" height="2.12" rx="0.15"/><path class="cls-8" d="M5.06,22.86h0v-.05a.09.09,0,0,1,.06,0h0v0h0v0h0V23h0Z"/><path class="cls-8" d="M5.2,22.84h0v0h0a.09.09,0,0,1,0,.07v.13h.07v-.18h-.1v.17h0Z"/><rect class="cls-19" x="4.73" y="18.89" width="4.93" height="2" rx="0.24"/><rect class="cls-20" x="4.83" y="18.97" width="4.72" height="1.84" rx="0.19"/><path class="cls-8" d="M5.06,20.47h.09v0h0s0,0,0,0h.11v0H5.09v0h0v.07H5.06Z"/><path class="cls-8" d="M5.25,20.2h0v.13h.07a.06.06,0,0,1,0,.06v.13h0V20.4a0,0,0,0,0,0,0s0,0,0,0H5.29v.16h0Z"/><path class="cls-8" d="M5.5,20.31h0v.21h0Zm0-.09Z"/><path class="cls-8" d="M5.61,20.31h0a.06.06,0,0,1,0-.06h.08v0h0v0h0v.19h0Z"/><path class="cls-8" d="M5.75,20.31h0v0l0-.05h0v.07h0v.15h0v0H5.76v-.15Z"/><rect class="cls-21" x="32.89" y="18.89" width="4.93" height="2" rx="0.24"/><rect class="cls-22" x="32.99" y="18.97" width="4.72" height="1.84" rx="0.19"/><rect class="cls-23" x="9.92" y="18.89" width="2.01" height="2" rx="0.24"/><rect class="cls-24" x="10.02" y="18.97" width="1.8" height="1.84" rx="0.19"/><path class="cls-8" d="M10.76,20.09l.26-.41h-.24v0h.3l-.26.41h.24v0h-.3Z"/><rect class="cls-25" x="12.22" y="18.89" width="2.01" height="2" rx="0.24"/><rect class="cls-26" x="12.33" y="18.97" width="1.8" height="1.84" rx="0.19"/><path class="cls-8" d="M13.1,20.1h0l.12-.24-.1-.22h0l.11.21Zm.13-.25.1-.21h.05l-.11.21.12.25h0Z"/><rect class="cls-27" x="14.53" y="18.89" width="2.01" height="2" rx="0.24"/><rect class="cls-28" x="14.63" y="18.97" width="1.8" height="1.84" rx="0.19"/><path class="cls-8" d="M15.68,20.05h-.2L15.41,20a.43.43,0,0,1,0-.07.17.17,0,0,1,0-.1v-.1a.2.2,0,0,1,0-.08.18.18,0,0,1,.07,0h0l0,0a.15.15,0,0,0,0,.07.11.11,0,0,0,0,.08.14.14,0,0,0,0,.09l0,.06.06,0h.1Z"/><rect class="cls-29" x="16.83" y="18.89" width="2.01" height="2" rx="0.24"/><rect class="cls-30" x="16.94" y="18.97" width="1.8" height="1.84" rx="0.19"/><path class="cls-8" d="M17.66,19.64h.05l.13.42.13-.42h0l-.15.44h0Z"/><rect class="cls-31" x="19.14" y="18.89" width="2.01" height="2" rx="0.24"/><rect class="cls-32" x="19.24" y="18.97" width="1.8" height="1.84" rx="0.19"/><path class="cls-8" d="M20,19.64h.09l.12,0a.18.18,0,0,1,0,.1v.06h0v.09a.06.06,0,0,1,0,.06l0,0-.06,0H20Zm.1.19h.08a.08.08,0,0,0,0-.06.08.08,0,0,0,0-.05.13.13,0,0,0-.08,0h-.06v.16Zm-.06.23h.15s0,0,0,0V20l0,0h-.15Z"/><rect class="cls-33" x="21.42" y="18.89" width="2.01" height="2" rx="0.24"/><rect class="cls-34" x="21.53" y="18.97" width="1.8" height="1.84" rx="0.19"/><path class="cls-8" d="M22.28,19.64h0l.22.38v-.38h0v.44h-.05l-.22-.38v.38h0Z"/><rect class="cls-35" x="23.73" y="18.89" width="2.01" height="2" rx="0.24"/><rect class="cls-36" x="23.84" y="18.97" width="1.8" height="1.84" rx="0.19"/><path class="cls-8" d="M24.55,19.64h.06l.12.31.13-.31h.05l0,.44h0v-.39l-.13.3h0l-.12-.3,0,.39h-.05Z"/><rect class="cls-37" x="30.64" y="18.89" width="2.01" height="2" rx="0.24"/><rect class="cls-38" x="30.75" y="18.97" width="1.8" height="1.84" rx="0.19"/><path class="cls-8" d="M31.7,20.1h0l-.12.37h0Z"/><path class="cls-8" d="M31.63,19.45h0v-.08a.08.08,0,0,0-.07,0h0a.17.17,0,0,1,.1,0,.11.11,0,0,1,0,.08v0l0,0,0,0h0v.06h0Zm0,.19v-.05h0v.05Z"/><rect class="cls-39" x="28.34" y="18.89" width="2.01" height="2" rx="0.24"/><rect class="cls-40" x="28.44" y="18.97" width="1.8" height="1.84" rx="0.19"/><path class="cls-8" d="M29.35,20.43h0v0h0v0Z"/><path class="cls-8" d="M29.24,19.52v0l.18-.07-.18-.08v0l.22.09v0h0Z"/><rect class="cls-41" x="26.04" y="18.89" width="2.01" height="2" rx="0.24"/><rect class="cls-42" x="26.14" y="18.97" width="1.8" height="1.84" rx="0.19"/><path class="cls-8" d="M27,20.36h0l0,.1h0Z"/><path class="cls-8" d="M26.93,19.41h0l.22-.1v0l-.18.07.18.08v0Z"/><rect class="cls-43" x="8.73" y="16.64" width="2.01" height="2" rx="0.24"/><rect class="cls-44" x="8.84" y="16.72" width="1.8" height="1.84" rx="0.19"/><path class="cls-8" d="M9.71,17.42h0l.14.46h0l0-.12H9.63l0,.12h0Zm.11.3-.08-.25-.08.25Z"/><rect class="cls-45" x="11.04" y="16.64" width="2.01" height="2" rx="0.24"/><rect class="cls-46" x="11.14" y="16.72" width="1.8" height="1.84" rx="0.19"/><path class="cls-8" d="M11.92,17.83h.17l0,0v-.07h0l0,0-.05,0h0l0,0,0,0v-.05a.09.09,0,0,1,0-.08.15.15,0,0,1,.11,0h0a.09.09,0,0,0-.07,0,.05.05,0,0,0,0,.05v.06H12l.05,0,0,0s0,0,0,0a0,0,0,0,1,0,.05.06.06,0,0,1,0,.06s0,0,0,0,0,0,0,0a.08.08,0,0,1-.07,0h-.11Z"/><rect class="cls-47" x="13.34" y="16.64" width="2.01" height="2" rx="0.24"/><rect class="cls-48" x="13.45" y="16.72" width="1.8" height="1.84" rx="0.19"/><path class="cls-8" d="M14.18,17.42h.23l.08,0a.21.21,0,0,1,0,.07.17.17,0,0,1,0,.1.21.21,0,0,1-.18.24h-.16Zm0,.44h.08a.11.11,0,0,0,.08,0,.06.06,0,0,0,.06,0,.21.21,0,0,0,0-.06.14.14,0,0,0,0-.09.2.2,0,0,0-.05-.15.24.24,0,0,0-.14-.05h-.06Z"/><rect class="cls-49" x="15.65" y="16.64" width="2.01" height="2" rx="0.24"/><rect class="cls-50" x="15.75" y="16.72" width="1.8" height="1.84" rx="0.19"/><path class="cls-8" d="M16.54,17.42h.22v0h-.18v.15h.16v.05h-.16v.22h0Z"/><rect class="cls-51" x="17.95" y="16.64" width="2.01" height="2" rx="0.24"/><rect class="cls-52" x="18.06" y="16.72" width="1.8" height="1.84" rx="0.19"/><path class="cls-8" d="M19.08,17.65h.07v.22h-.22l-.07-.05a.25.25,0,0,1,0-.07.17.17,0,0,1,0-.1.21.21,0,0,1,0-.11.25.25,0,0,1,0-.07.18.18,0,0,1,.07,0h.19v0H19a.12.12,0,0,0-.05,0s0,0,0,.06v.17a.21.21,0,0,0,0,.06.12.12,0,0,0,.12,0h.08Z"/><rect class="cls-53" x="20.24" y="16.64" width="2.01" height="2" rx="0.24"/><rect class="cls-54" x="20.35" y="16.72" width="1.8" height="1.84" rx="0.19"/><path class="cls-8" d="M21.09,17.42h.05v.2h.21v-.2h0v.46h0v-.22h-.23v.22h0Z"/><rect class="cls-55" x="22.55" y="16.64" width="2.01" height="2" rx="0.24"/><rect class="cls-56" x="22.65" y="16.72" width="1.8" height="1.84" rx="0.19"/><path class="cls-8" d="M23.59,17.46H23.5v0h.13v.41l0,0h-.13v0h.1v0Z"/><rect class="cls-57" x="24.85" y="16.64" width="2.01" height="2" rx="0.24"/><rect class="cls-58" x="24.95" y="16.72" width="1.8" height="1.84" rx="0.19"/><path class="cls-8" d="M25.7,17.42h.05v.46H25.7Zm.08.23.15-.23H26l-.16.22.19.24H26Z"/><rect class="cls-59" x="27.15" y="16.64" width="2.01" height="2" rx="0.24"/><rect class="cls-60" x="27.26" y="16.72" width="1.8" height="1.84" rx="0.19"/><path class="cls-8" d="M28,17.42h0v.44h.2v0H28Z"/><rect class="cls-61" x="29.46" y="16.64" width="2.01" height="2" rx="0.24"/><rect class="cls-62" x="29.57" y="16.72" width="1.8" height="1.84" rx="0.19"/><path class="cls-8" d="M30.45,18.09h0l0,.1h0Zm0-.18h0s0,0,0,0h0v0h0Z"/><path class="cls-8" d="M30.43,17.14v0h0v0Zm0,.23v-.05h0v0h0Z"/><rect class="cls-63" x="31.77" y="16.64" width="2.01" height="2" rx="0.24"/><rect class="cls-64" x="31.87" y="16.72" width="1.8" height="1.84" rx="0.19"/><path class="cls-8" d="M32.76,17.93h0V18h0Z"/><path class="cls-8" d="M32.72,17.28h0l0,.11h0Zm.09,0h0l0,.11h0Z"/><rect class="cls-65" x="8.18" y="14.42" width="2.01" height="2" rx="0.24"/><rect class="cls-66" x="8.28" y="14.49" width="1.8" height="1.84" rx="0.19"/><path class="cls-8" d="M9.18,15.6H9.1a.1.1,0,0,1-.06,0,.25.25,0,0,1,0-.07v-.19a.2.2,0,0,1,0-.08.1.1,0,0,1,.06-.05h.17a.12.12,0,0,1,.05.05.2.2,0,0,1,0,.08v.19a.25.25,0,0,1,0,.07l-.05,0Zm0,0h.06a.1.1,0,0,0,0,0,.14.14,0,0,0,0-.07.11.11,0,0,0,0-.08.09.09,0,0,0,0-.07.14.14,0,0,0,0-.07l0,0H9.12l0,0a.14.14,0,0,0,0,.07l0,.08v.08l0,.07,0,0Zm.19.08h0v0l-.13,0v0h0Z"/><rect class="cls-67" x="10.48" y="14.42" width="2.01" height="2" rx="0.24"/><rect class="cls-68" x="10.59" y="14.49" width="1.8" height="1.84" rx="0.19"/><path class="cls-8" d="M11.22,15.17h.06l.09.41.1-.41h0l.11.41.09-.41h0l-.11.44H11.6l-.11-.4-.1.4h-.06Z"/><rect class="cls-69" x="12.79" y="14.42" width="2.01" height="2" rx="0.24"/><rect class="cls-70" x="12.89" y="14.49" width="1.8" height="1.84" rx="0.19"/><path class="cls-8" d="M13.67,15.17h.24v0h-.19v.17h.14v0h-.15v.18h.2v0h-.25Z"/><rect class="cls-71" x="15.09" y="14.42" width="2.01" height="2" rx="0.24"/><rect class="cls-72" x="15.2" y="14.49" width="1.8" height="1.84" rx="0.19"/><path class="cls-8" d="M16,15.17h.15l0,0,0,.05a.06.06,0,0,1,0,.06,0,0,0,0,1,0,0l0,0,0,0,0,0h0l.15.19h-.06L16,15.42h0l0,0,0,0v0a.12.12,0,0,0,0-.08H16v.44h-.05Z"/><rect class="cls-73" x="17.4" y="14.42" width="2.01" height="2" rx="0.24"/><rect class="cls-74" x="17.5" y="14.49" width="1.8" height="1.84" rx="0.19"/><path class="cls-8" d="M18.38,15.21h-.11v0h.29v0h-.13v.42h0Z"/><rect class="cls-75" x="19.69" y="14.42" width="2.01" height="2" rx="0.24"/><rect class="cls-76" x="19.79" y="14.49" width="1.8" height="1.84" rx="0.19"/><path class="cls-8" d="M20.67,15.46l-.15-.29h.06l.11.24.12-.24h.05l-.14.29v.17h0Z"/><rect class="cls-77" x="21.99" y="14.42" width="2.01" height="2" rx="0.24"/><rect class="cls-78" x="22.09" y="14.49" width="1.8" height="1.84" rx="0.19"/><path class="cls-8" d="M22.84,15.17h.05v.28a.08.08,0,0,0,0,.07.08.08,0,0,0,0,0l0,0h0a.15.15,0,0,0,.09,0,.2.2,0,0,0,0-.11v-.28h0v.28a.23.23,0,0,1,0,.14.18.18,0,0,1-.24,0,.17.17,0,0,1,0-.14Z"/><rect class="cls-79" x="24.29" y="14.42" width="2.01" height="2" rx="0.24"/><rect class="cls-80" x="24.4" y="14.49" width="1.8" height="1.84" rx="0.19"/><path class="cls-8" d="M25.27,15.17h0v.44h0Z"/><rect class="cls-81" x="26.6" y="14.42" width="2.01" height="2" rx="0.24"/><rect class="cls-82" x="26.71" y="14.49" width="1.8" height="1.84" rx="0.19"/><path class="cls-8" d="M27.61,15.64a.18.18,0,0,1-.15-.07l0-.07a.34.34,0,0,1,0-.2l0-.07.06-.05h.17l.06.05a.21.21,0,0,1,0,.07.34.34,0,0,1,0,.2.21.21,0,0,1,0,.07l-.06,0Zm0,0a.11.11,0,0,0,.1-.06.09.09,0,0,0,0-.06.43.43,0,0,0,0-.16.09.09,0,0,0,0-.06l0,0h-.13l0,0a.09.09,0,0,0,0,.06.43.43,0,0,0,0,.16.09.09,0,0,0,0,.06l0,.05Z"/><rect class="cls-83" x="28.91" y="14.42" width="2.01" height="2" rx="0.24"/><rect class="cls-84" x="29.01" y="14.49" width="1.8" height="1.84" rx="0.19"/><path class="cls-8" d="M29.78,15.18H30l0,0a.29.29,0,0,1,0,.13.1.1,0,0,1,0,.05l-.06,0h-.11v.18h0Zm0,.23H30a0,0,0,0,0,0,0,0,0,0,0,0,0-.05,0,0,0,0,0,0-.05l0,0h-.14Z"/><rect class="cls-85" x="31.21" y="14.42" width="2.01" height="2" rx="0.24"/><rect class="cls-86" x="31.31" y="14.49" width="1.8" height="1.84" rx="0.19"/><path class="cls-8" d="M32.16,15.54h.11v0H32.2V16h0Z"/><path class="cls-8" d="M32.19,15.12v-.06h0V15a.11.11,0,0,1,0-.08.11.11,0,0,1,.08,0h0v.07h0V15h0v.1h0v.07h0a.11.11,0,0,1-.08,0v-.08Z"/><rect class="cls-87" x="33.51" y="14.42" width="2.01" height="2" rx="0.24"/><rect class="cls-88" x="33.62" y="14.49" width="1.8" height="1.84" rx="0.19"/><path class="cls-8" d="M34.57,16h0v-.42h-.07v0h.1Z"/><path class="cls-8" d="M34.55,15.16v.08a.08.08,0,0,1-.08,0h0v-.07h0V15.1h0V15h0V15h0a.11.11,0,0,1,.08,0v0a0,0,0,0,0,0,0,0,0,0,0,0,0,0h0s0,0,0,0a0,0,0,0,0,0,0Z"/><rect class="cls-89" x="4.73" y="14.41" width="3.16" height="2" rx="0.24"/><rect class="cls-90" x="4.83" y="14.49" width="2.95" height="1.84" rx="0.19"/><path class="cls-8" d="M5.06,15.88h0v-.06l0,0h0v.06h0V16h0v0H5.08a0,0,0,0,1,0,0Z"/><path class="cls-8" d="M5.31,15.93a0,0,0,0,0,0,0h0a.06.06,0,0,1,0,.06v.14H5.2a.08.08,0,0,1,0-.05v0h.11Zm0,0H5.23a0,0,0,0,0,0,0v0h.08Z"/><path class="cls-8" d="M5.41,15.76h0v.1h.08l0,0V16a.12.12,0,0,1,0,.09.08.08,0,0,1-.09,0h0Zm0,.29h.09V16a.06.06,0,0,0,0-.06l0,0h0v0Z"/><rect class="cls-91" x="32.37" y="12.16" width="2.01" height="2" rx="0.24"/><rect class="cls-92" x="32.47" y="12.24" width="1.8" height="1.84" rx="0.19"/><path class="cls-8" d="M33.5,13.43v0h-.25v0Zm0,.11v0h-.25v0Z"/><path class="cls-8" d="M33.36,12.81h-.1v0h.1v-.11h0v.11h.09v0H33.4v.1h0Z"/><rect class="cls-93" x="11.64" y="12.16" width="2.01" height="2" rx="0.24"/><rect class="cls-94" x="11.75" y="12.24" width="1.8" height="1.84" rx="0.19"/><path class="cls-8" d="M12.59,13.66h.09l0,0a0,0,0,0,0,0-.05.07.07,0,0,0,0-.06h-.12l.11-.16h-.16v0h.23l-.12.17h.06l0,0v.07a.08.08,0,0,1,0,.07s0,0,0,0l0,0H12.5v0h0Z"/><path class="cls-8" d="M12.54,12.82h-.07v0h.07v-.11h0v-.1h0v.1h.12v-.1h0v.1h.07v0h-.07v.12h.07v0h-.08V13h0v-.11h-.11V13h0Zm.17,0v-.11h-.12v.11Z"/><rect class="cls-95" x="4.73" y="12.16" width="2.01" height="2" rx="0.24"/><rect class="cls-96" x="4.83" y="12.24" width="1.8" height="1.84" rx="0.19"/><path class="cls-8" d="M5.7,13.36h0l0,.12h0Z"/><path class="cls-8" d="M5.68,12.79h0v0h.05Z"/><rect class="cls-97" x="7.03" y="12.16" width="2.01" height="2" rx="0.24"/><rect class="cls-98" x="7.14" y="12.24" width="1.8" height="1.84" rx="0.19"/><path class="cls-8" d="M7.94,13.41h0l.14-.08h0v.35h.06v0H8v-.28Z"/><path class="cls-8" d="M8,13v-.05h.06V13Zm0-.42H8v.3H8Z"/><rect class="cls-99" x="9.34" y="12.16" width="2.01" height="2" rx="0.24"/><rect class="cls-100" x="9.44" y="12.24" width="1.8" height="1.84" rx="0.19"/><path class="cls-8" d="M10.2,13.62h0l.11-.12,0,0,0,0v-.12h0l0,0,0,0v.12s0,0,0,0l0,0-.08.08h.18v0Z"/><path class="cls-8" d="M10.42,12.87H10.3v-.1l0,0,0,0h.11l0,.15h0l0,0v-.08a.09.09,0,0,0-.11-.09h-.07a.05.05,0,0,0-.05,0l0,.05a.2.2,0,0,0,0,.11l0,0h.12v0h-.14l-.05,0,0,0v-.13a.2.2,0,0,1,.11-.11h.14l.05,0,0,0v.15l0,0S10.43,12.86,10.42,12.87Zm0-.17h-.08v.1h.07Z"/><rect class="cls-101" x="13.94" y="12.16" width="2.01" height="2" rx="0.24"/><rect class="cls-102" x="14.05" y="12.24" width="1.8" height="1.84" rx="0.19"/><path class="cls-8" d="M14.8,13.59h0l.17-.33h0l-.14.29H15v-.12h0v.12h0v.08h0v-.08Z"/><path class="cls-8" d="M14.83,12.91H15v-.05l-.06,0h-.06v-.1a.09.09,0,0,1,.07,0v0h0v0H15v0h-.12s0,0,0,0H15v.06a.14.14,0,0,1,0,.06l-.06,0V13h0v-.05h0Z"/><rect class="cls-103" x="16.24" y="12.16" width="2.01" height="2" rx="0.24"/><rect class="cls-104" x="16.34" y="12.24" width="1.8" height="1.84" rx="0.19"/><path class="cls-8" d="M17.39,13.57v.06l0,0-.05,0h0v-.14l0,0h-.12v-.19h.19v0h-.16v.12h.1l0,0,0,0Z"/><path class="cls-8" d="M17.18,12.66v0s0,0,0,0l0,0H17l0,0v-.17l0,0h.1l0,0a.05.05,0,0,1,0,0A.07.07,0,0,1,17.18,12.66Zm-.17,0a.06.06,0,0,0,0,.06,0,0,0,0,0,0,0s0,0,.05,0a.06.06,0,0,0,0-.06.08.08,0,0,0,0-.07.05.05,0,0,0-.08,0l0,0A.08.08,0,0,0,17,12.66Zm.12.29h0l.28-.41h0Zm.39-.12v.09l0,0h-.1l0,0,0,0a.17.17,0,0,1,0-.1l0,0,0,0h.1l0,0v.09Zm-.17,0a.09.09,0,0,0,0,.07.06.06,0,0,0,.07,0l0,0a.09.09,0,0,0,0-.07.06.06,0,0,0,0-.06.05.05,0,0,0-.05,0s0,0-.05,0A.07.07,0,0,0,17.35,12.83Z"/><rect class="cls-105" x="18.54" y="12.16" width="2.01" height="2" rx="0.24"/><rect class="cls-106" x="18.64" y="12.24" width="1.8" height="1.84" rx="0.19"/><path class="cls-8" d="M19.41,13.52a.14.14,0,0,1,0-.09.2.2,0,0,1,0-.08l.06-.07.1,0h-.06l-.06,0,0,.05v.09a.1.1,0,0,1,0,0,.09.09,0,0,1,.07,0h0l0,0,0,0v.12l0,0,0,0h-.1l-.05,0,0,0A.08.08,0,0,0,19.41,13.52Zm.14-.07h-.07s0,0,0,0v0a.11.11,0,0,0,0,.07h.06l0,0h0v0a.14.14,0,0,0,0-.09v0h0Z"/><path class="cls-8" d="M19.52,12.55h.07l.09.2h0l-.08-.17-.08.17h0Z"/><rect class="cls-107" x="20.84" y="12.16" width="2.01" height="2" rx="0.24"/><rect class="cls-108" x="20.95" y="12.24" width="1.8" height="1.84" rx="0.19"/><path class="cls-8" d="M21.79,13.71h0l.16-.36h-.22v0H22Z"/><path class="cls-8" d="M21.93,12.9l-.06,0h-.06a.12.12,0,0,1-.1,0s0-.05,0-.07a.06.06,0,0,1,0-.07.16.16,0,0,1,.08-.06l0,0v0a.07.07,0,0,1,0-.06.09.09,0,0,1,.07,0,.11.11,0,0,1,.07,0,.06.06,0,0,1,0,.06s0,.07-.08.1l.07.09v-.06H22a.32.32,0,0,1,0,.09l.06.07,0,0A.1.1,0,0,1,21.93,12.9Zm0,0-.11-.12a.1.1,0,0,0-.06,0,0,0,0,0,0,0,0,0,0,0,0,0,0,.05.06.06,0,0,0,.06,0h0A.12.12,0,0,0,21.9,12.86Zm-.07-.17,0,0a0,0,0,0,0,0-.07h0s0,0,0,0h0Z"/><rect class="cls-109" x="25.46" y="12.16" width="2.01" height="2" rx="0.24"/><rect class="cls-110" x="25.56" y="12.24" width="1.8" height="1.84" rx="0.19"/><path class="cls-8" d="M26.6,13.46v.1l0,.08-.07.06-.1,0v0h.07a.11.11,0,0,0,0-.08.1.1,0,0,0,0,0v-.08l0,0h-.11l0,0a.08.08,0,0,1,0,0v-.12a.08.08,0,0,1,0,0l0,0h.11l0,0a.1.1,0,0,1,0,0Zm-.15.07h0a.12.12,0,0,0,.05,0v0a.19.19,0,0,0,0-.08l-.07,0h0l-.05.05v.12h0Z"/><path class="cls-8" d="M26.52,13.06h0l0-.05v-.45l0-.05h0v0l0,.06V13l0,.06Z"/><rect class="cls-111" x="27.76" y="12.16" width="2.01" height="2" rx="0.24"/><rect class="cls-112" x="27.87" y="12.24" width="1.8" height="1.84" rx="0.19"/><path class="cls-8" d="M28.62,13.51v-.08l0-.06.05,0h.12l.05,0a.14.14,0,0,1,0,.06v.16a.14.14,0,0,1,0,.06l-.05,0H28.7a.1.1,0,0,1-.05,0l0-.06Zm.15-.16a.12.12,0,0,0-.08,0,.25.25,0,0,0,0,.12.17.17,0,0,0,0,.12.12.12,0,0,0,.08,0s.05,0,.06-.05a.16.16,0,0,0,0-.12.2.2,0,0,0,0-.11Z"/><path class="cls-8" d="M28.71,13.08v0l0-.06v-.08a.67.67,0,0,0,0-.2v-.08l0-.06v0h0l0,0V13l0,.05Z"/><rect class="cls-113" x="34.61" y="12.16" width="3.26" height="2" rx="0.24"/><rect class="cls-114" x="34.71" y="12.24" width="3.05" height="1.84" rx="0.19"/><rect class="cls-115" x="19" y="10.6" width="2.16" height="1.34" rx="0.24"/><rect class="cls-116" x="19.1" y="10.69" width="1.95" height="1.14" rx="0.19"/><path class="cls-8" d="M20.58,11.42h0v.08h0v.11h0Z"/><path class="cls-8" d="M20.72,11.55v-.1l0,0h0v.06h0v0h.08v0a.06.06,0,0,1,0,.06v0h-.06v0Zm.08,0h0v.06h0v-.05h0Z"/><rect class="cls-117" x="16.64" y="10.6" width="2.16" height="1.34" rx="0.24"/><rect class="cls-118" x="16.75" y="10.69" width="1.95" height="1.14" rx="0.19"/><path class="cls-8" d="M18.27,11.39h0v.07h0v.11h0Z"/><path class="cls-8" d="M18.54,11.56v0h0v0h-.06v-.15h0v.06h.05v.08Z"/><rect class="cls-119" x="4.7" y="10.6" width="2.16" height="1.34" rx="0.24"/><rect class="cls-120" x="4.8" y="10.69" width="1.95" height="1.14" rx="0.19"/><path class="cls-8" d="M5.53,11.28a.11.11,0,0,0,0,.06h0l0,0v-.15l0,0h.1v.06h0Zm.12,0s0,0,0,0,0,0,0,0H5.58v0Z"/><path class="cls-8" d="M5.73,11.35h.09v0h0v0h0v0H5.77s0,0,0,0h0v.08h0A.13.13,0,0,1,5.73,11.35Z"/><path class="cls-8" d="M6.05,11.36v0H6l-.07,0v-.18H6v.06a.06.06,0,0,0,0,.06h.1Z"/><rect class="cls-121" x="7.07" y="10.6" width="2.16" height="1.34" rx="0.24"/><rect class="cls-122" x="7.17" y="10.69" width="1.95" height="1.14" rx="0.19"/><path class="cls-8" d="M8.67,11.42h0v.08h0v.11h0Z"/><path class="cls-8" d="M8.84,11.49h0l.07,0h0v.18h0v-.15Z"/><path class="cls-8" d="M8.14,11.33a.08.08,0,0,1-.07-.07.08.08,0,0,1,.07-.08.09.09,0,0,1,.08.08A.08.08,0,0,1,8.14,11.33Zm0-.14a.06.06,0,0,0-.05.06h0a0,0,0,0,0,.05.05h0s.06,0,.07-.05h0a.07.07,0,0,0-.07-.07Z"/><path class="cls-8" d="M8.22,11.18h0l.07-.07h0Z"/><path class="cls-8" d="M8.29,11.42h0l-.07-.07h0l.07.08h0Z"/><path class="cls-8" d="M8,11.39H8l.08-.07h0Z"/><path class="cls-8" d="M8.07,11.19h0L8,11.12H8l.08.07Z"/><rect class="cls-123" x="9.47" y="10.6" width="2.16" height="1.34" rx="0.24"/><rect class="cls-124" x="9.57" y="10.69" width="1.95" height="1.14" rx="0.19"/><path class="cls-8" d="M11.1,11.42h0v.08h0v.11h0Z"/><path class="cls-8" d="M11.25,11.63h0l.06-.06h0v0h0v0h0v0h0v0h0l0,0,0,0h0Z"/><path class="cls-8" d="M10.55,11.34a.1.1,0,0,1-.1-.09.09.09,0,1,1,.18,0,0,0,0,0,1,0,0,.08.08,0,0,1-.08.09Zm0-.15s-.07,0-.07.06a.07.07,0,0,0,.06.07h0a.07.07,0,0,0,.06-.07A.06.06,0,0,0,10.55,11.19Z"/><path class="cls-8" d="M10.55,11.13h0V11h0v.15Z"/><path class="cls-8" d="M10.63,11.17h0l.1-.09h0l-.09.09Z"/><path class="cls-8" d="M10.73,11.42h0l-.09-.09h0l.09.09Z"/><path class="cls-8" d="M10.34,11.42h0l.1-.08h0l-.1.09Z"/><path class="cls-8" d="M10.46,11.18h0l-.09-.09h0l.09.09Z"/><rect class="cls-125" x="11.87" y="10.6" width="2.16" height="1.34" rx="0.24"/><rect class="cls-126" x="11.98" y="10.69" width="1.95" height="1.14" rx="0.19"/><path class="cls-8" d="M13.49,11.39h0v.07h0v.11h0Z"/><path class="cls-8" d="M13.68,11.61h.05v0h-.07l.06-.09h0l-.06.09h.06v0h-.11v0h0Z"/><path class="cls-8" d="M13.28,11.38h-.19v-.26h.19v.26Zm-.18,0h.17v-.24H13.1Z"/><path class="cls-8" d="M12.94,11.23h-.31v-.16h.31v.16Zm-.3,0h.28v-.14h-.28Z"/><path class="cls-8" d="M13,11.48h-.24v-.17H13v.17Zm-.22,0H13v-.14h-.2Z"/><rect class="cls-127" x="14.24" y="10.6" width="2.16" height="1.34" rx="0.24"/><rect class="cls-128" x="14.34" y="10.69" width="1.95" height="1.14" rx="0.19"/><path class="cls-8" d="M15.84,11.39h0v.08h0v.11h0Z"/><path class="cls-8" d="M16,11.59h0l.08-.17h0l-.07.16h.07v-.06h0v.06h0v.05h0v-.05Z"/><rect class="cls-8" x="15.48" y="11.32" width="0.13" height="0.13"/><rect class="cls-8" x="15.48" y="11.1" width="0.13" height="0.13"/><rect class="cls-8" x="15.25" y="11.32" width="0.13" height="0.13"/><rect class="cls-8" x="15.25" y="11.1" width="0.13" height="0.13"/><rect class="cls-8" x="15.04" y="11.32" width="0.13" height="0.13"/><rect class="cls-8" x="15.04" y="11.1" width="0.13" height="0.13"/><rect class="cls-129" x="21.4" y="10.6" width="2.16" height="1.34" rx="0.24"/><rect class="cls-130" x="21.5" y="10.69" width="1.95" height="1.14" rx="0.19"/><path class="cls-8" d="M23.19,11.63h0l.08-.19h0Z"/><polygon class="cls-8" points="22.67 11.15 22.48 11.26 22.48 11.15 22.28 11.26 22.48 11.38 22.48 11.27 22.67 11.38 22.67 11.15"/><rect class="cls-131" x="26.17" y="10.6" width="2.16" height="1.34" rx="0.24"/><rect class="cls-132" x="26.27" y="10.69" width="1.95" height="1.14" rx="0.19"/><path class="cls-8" d="M27.73,11.38h0v.07h0v.11h0Z"/><path class="cls-8" d="M28,11.49v.1l0,0h0l0,0,0,0v0h-.08v0s0,0,0,0a0,0,0,0,1,0,0,0,0,0,0,1,0,0H28v.07Zm-.08,0h0v-.11h0a0,0,0,0,0,0,.05h0Z"/><polygon class="cls-8" points="27.04 11.15 27.24 11.26 27.24 11.15 27.44 11.26 27.24 11.38 27.24 11.27 27.04 11.38 27.04 11.15"/><rect class="cls-133" x="23.8" y="10.6" width="2.16" height="1.34" rx="0.24"/><rect class="cls-134" x="23.9" y="10.69" width="1.95" height="1.14" rx="0.19"/><path class="cls-8" d="M25.35,11.42h0v.08h0v.11h0Z"/><path class="cls-8" d="M25.57,11.63h-.05v-.05h0s0,0,0,0h.07v0h0v.05h0Zm0,0h0a0,0,0,0,0,0,0h0v0s0,0,0,0Zm0-.19h0v0h0Z"/><polygon class="cls-8" points="24.65 11.39 24.85 11.27 24.65 11.15 24.65 11.39"/><rect class="cls-8" x="24.91" y="11.14" width="0.07" height="0.24"/><rect class="cls-8" x="25.03" y="11.14" width="0.07" height="0.24"/><rect class="cls-135" x="28.57" y="10.6" width="2.16" height="1.34" rx="0.24"/><rect class="cls-136" x="28.68" y="10.69" width="1.95" height="1.14" rx="0.19"/><path class="cls-8" d="M30,11.42h0v.08h0v.11h0Z"/><path class="cls-8" d="M30.19,11.48h0l.08,0h0v.18h0v-.15Z"/><path class="cls-8" d="M30.35,11.53v-.07l0,0h.07l0,0v.14l0,0h-.07l0,0v-.07Zm.08-.08h0a.08.08,0,0,0,0,.07.06.06,0,0,0,0,.06s0,0,.07,0h0v-.13Z"/><polygon class="cls-8" points="29.76 11.11 29.65 11.2 29.54 11.2 29.54 11.35 29.65 11.35 29.76 11.44 29.76 11.11"/><rect class="cls-137" x="30.92" y="10.6" width="2.16" height="1.34" rx="0.24"/><rect class="cls-138" x="31.03" y="10.69" width="1.95" height="1.14" rx="0.19"/><path class="cls-8" d="M32.38,11.42h0v.08h0v.11h0Z"/><path class="cls-8" d="M32.54,11.49h0l.08,0h0v.18h0v-.15Z"/><path class="cls-8" d="M32.73,11.49h0l.06-.07h0v.19h0v-.16Z"/><polygon class="cls-8" points="31.79 11.2 31.79 11.34 31.9 11.34 32.01 11.44 32.01 11.11 31.9 11.2 31.79 11.2"/><path class="cls-8" d="M32,11.15h0a.1.1,0,0,1,.09.1.09.09,0,0,1-.09.09h0a.12.12,0,0,0,.14-.09.12.12,0,0,0-.1-.14h0Z"/><rect class="cls-139" x="33.29" y="10.6" width="2.16" height="1.34" rx="0.24"/><rect class="cls-140" x="33.4" y="10.69" width="1.95" height="1.14" rx="0.19"/><path class="cls-8" d="M34.76,11.42h0v.08h0v.11h0Z"/><path class="cls-8" d="M34.93,11.49h0l.06-.07h0v.19h0v-.16Z"/><path class="cls-8" d="M35.09,11.63h0l.06-.06h0v0h0a0,0,0,0,0,0,0h0s0,0,0,0h0v0h0v0l0,0h0Z"/><polygon class="cls-8" points="34.11 11.2 34.11 11.34 34.22 11.34 34.34 11.44 34.34 11.11 34.22 11.2 34.11 11.2"/><path class="cls-8" d="M34.37,11.36h0a.12.12,0,0,0,0-.23h0a.09.09,0,0,1,.09.09.1.1,0,0,1,0,.13A.07.07,0,0,1,34.37,11.36Z"/><path class="cls-8" d="M34.55,11.27a.2.2,0,0,0-.2-.2h0a.18.18,0,0,1,.14.2.17.17,0,0,1-.14.15h0A.21.21,0,0,0,34.55,11.27Z"/><path class="cls-8" d="M34.41,11h0a.22.22,0,0,1,.23.22h0a.23.23,0,0,1-.23.23h0a.25.25,0,0,0,0-.5h0Z"/><rect class="cls-141" x="30.07" y="12.16" width="2.01" height="2" rx="0.24"/><rect class="cls-142" x="30.17" y="12.24" width="1.8" height="1.84" rx="0.19"/><rect class="cls-8" x="30.91" y="12.73" width="0.33" height="0.07"/><rect class="cls-8" x="30.98" y="13.46" width="0.18" height="0.05"/><rect class="cls-143" x="23.15" y="12.16" width="2.01" height="2" rx="0.24"/><rect class="cls-144" x="23.26" y="12.24" width="1.8" height="1.84" rx="0.19"/><path class="cls-8" d="M24.16,13.68h-.1a.06.06,0,0,1,0-.06,0,0,0,0,1,0,0v-.08l0,0h0v-.12l0,0h.18v.15h0l0,0v.08a0,0,0,0,1,0,0l0,0h0Zm0,0h.07a0,0,0,0,0,0-.06,0,0,0,0,0,0,0l0,0,0,0h-.07l0,0s0,0,0,0a0,0,0,0,0,0,0,0,0,0,0,0,0,.06Zm0-.35a.06.06,0,0,0-.06,0,0,0,0,0,0,0,0s0,0,0,0v0h.08l0,0V13.3A0,0,0,0,0,24.16,13.3Z"/><path class="cls-8" d="M24.21,12.66l.06,0h-.06v-.06h0v.06h-.06v0l.06,0v0l0,.06h0l.05-.06h0l0,.06h0l0-.07Z"/><rect class="cls-145" x="4.73" y="16.65" width="3.78" height="2" rx="0.24"/><rect class="cls-146" x="4.83" y="16.73" width="3.57" height="1.84" rx="0.19"/><path class="cls-8" d="M5.2,18.18h0a.17.17,0,0,1-.1,0,.11.11,0,0,1,0-.08V18h0v.13a.07.07,0,0,0,.06,0h0Z"/><path class="cls-8" d="M5.38,18.06v0h0v.2H5.27a.06.06,0,0,1,0-.06s0,0,0,0,0,0,0,0,0,0,0,0h.08Zm0,0H5.29a0,0,0,0,0,0,0v0h.08Z"/><path class="cls-8" d="M5.47,18h0v0h.11v.12a.05.05,0,0,1,0,0H5.5v.1h0Zm0,.19h.1v-.07a.06.06,0,0,0,0-.06l0,0h0v0Z"/><path class="cls-8" d="M5.71,18.17h.06s0,0,0,0h0v-.06a.06.06,0,0,1,.06,0h0v0H5.74v0h0v.08h0S5.7,18.18,5.71,18.17Z"/><path class="cls-8" d="M6,17.9H6v.26h0v0H6V17.9Z"/><path class="cls-8" d="M6.19,18.21H6.12v-.16h.15v.16H6.19Zm0,0a.06.06,0,0,0,.06,0,.13.13,0,0,0,0-.12.07.07,0,0,0-.06,0,.05.05,0,0,0,0,0,.13.13,0,0,0,0,.12Z"/><path class="cls-8" d="M6.49,18.18h0a.09.09,0,0,1-.07,0,.19.19,0,0,1,0-.08v-.05l0,0h0v.13a.07.07,0,0,0,.06,0h0Z"/><path class="cls-8" d="M6.55,17.9h0v.3h0Zm0,.19.08-.1h0l-.07.1.08.11h0Z"/><path class="cls-147" d="M5,17.05a.09.09,0,0,1,.17,0,.08.08,0,0,1-.08.09h0A.08.08,0,0,1,5,17.05Z"/><rect class="cls-148" x="33.49" y="21.13" width="2.08" height="2.31" rx="0.24"/><path class="cls-149" d="M35.51,22.23V21.4a.19.19,0,0,0-.2-.19H33.75a.19.19,0,0,0-.19.19h0v.83Z"/><path class="cls-150" d="M33.56,22.32v.83a.2.2,0,0,0,.19.2h1.56a.2.2,0,0,0,.2-.2h0v-.83Z"/><polygon class="cls-8" points="34.64 21.8 34.52 21.6 34.41 21.8 34.64 21.8"/><polygon class="cls-8" points="34.64 22.76 34.52 22.96 34.41 22.76 34.64 22.76"/><rect class="cls-151" x="31.16" y="22.23" width="2.08" height="1.2" rx="0.24"/><rect class="cls-152" x="31.23" y="22.31" width="1.94" height="1.04" rx="0.19"/><polygon class="cls-8" points="32.24 22.97 32.04 22.85 32.24 22.74 32.24 22.97"/></svg>