<svg id="Layer_1" data-name="Layer 1" xmlns="http://www.w3.org/2000/svg" xmlns:xlink="http://www.w3.org/1999/xlink" viewBox="0 0 96.5 24.36"><defs><style>.cls-1{fill:url(#linear-gradient);}.cls-2{fill:url(#linear-gradient-2);}.cls-3{fill:url(#linear-gradient-3);}.cls-4{fill:url(#linear-gradient-4);}.cls-5{fill:url(#linear-gradient-5);}.cls-6{fill:url(#linear-gradient-6);}.cls-7{fill:url(#linear-gradient-7);}.cls-8{fill:url(#linear-gradient-8);}.cls-9{fill:url(#linear-gradient-9);}.cls-10{fill:none;}</style><linearGradient id="linear-gradient" x1="78.61" y1="18.77" x2="78.61" y2="12.68" gradientUnits="userSpaceOnUse"><stop offset="0" stop-color="#985ea6"/><stop offset="0.47" stop-color="#7167ae"/><stop offset="1" stop-color="#007ec3"/></linearGradient><linearGradient id="linear-gradient-2" x1="78.61" y1="20.15" x2="78.61" y2="5.2" xlink:href="#linear-gradient"/><linearGradient id="linear-gradient-3" x1="4.64" y1="20.15" x2="4.64" y2="5.2" xlink:href="#linear-gradient"/><linearGradient id="linear-gradient-4" x1="17.06" y1="20.5" x2="17.06" y2="4.86" xlink:href="#linear-gradient"/><linearGradient id="linear-gradient-5" x1="30.74" y1="20.5" x2="30.74" y2="4.86" xlink:href="#linear-gradient"/><linearGradient id="linear-gradient-6" x1="44.62" y1="20.15" x2="44.62" y2="5.2" xlink:href="#linear-gradient"/><linearGradient id="linear-gradient-7" x1="57.93" y1="20.33" x2="57.93" y2="5.03" xlink:href="#linear-gradient"/><linearGradient id="linear-gradient-8" x1="67.01" y1="20.15" x2="67.01" y2="5.2" xlink:href="#linear-gradient"/><linearGradient id="linear-gradient-9" x1="91.85" y1="20.5" x2="91.85" y2="4.86" xlink:href="#linear-gradient"/></defs><path class="cls-1" d="M80.68,12.68v4.25a1.79,1.79,0,0,1-.5,1.35,2.13,2.13,0,0,1-1.54.49h-2.1V14.56A6.55,6.55,0,0,0,80.68,12.68Z"/><path class="cls-2" d="M74.93,20.15V5.2h3.7a3.83,3.83,0,0,1,2.75.87,3.07,3.07,0,0,1,.91,2.35v8.51a3.1,3.1,0,0,1-.9,2.36,3.81,3.81,0,0,1-2.76.86ZM80.68,8.42a1.76,1.76,0,0,0-.52-1.34,2.12,2.12,0,0,0-1.53-.5H76.54V18.77h2.09a2.11,2.11,0,0,0,1.54-.49,1.79,1.79,0,0,0,.51-1.35Z"/><path class="cls-3" d="M8.44,6.58h-3V20.15H3.83V6.58h-3V5.2H8.44Z"/><path class="cls-4" d="M19.24,16h1.61v1.27a3.07,3.07,0,0,1-.91,2.35,4.06,4.06,0,0,1-2.86.87,4.12,4.12,0,0,1-2.87-.87,3,3,0,0,1-.94-2.35V8.08a3.06,3.06,0,0,1,.92-2.36A4.06,4.06,0,0,1,17,4.86a4.17,4.17,0,0,1,2.87.86,3,3,0,0,1,.94,2.36v5.06h-6v4.14a1.73,1.73,0,0,0,.54,1.34,2.39,2.39,0,0,0,1.66.5,2.35,2.35,0,0,0,1.64-.5,1.76,1.76,0,0,0,.52-1.34Zm-4.36-4.25h4.36V8.08a1.73,1.73,0,0,0-.54-1.36A2.44,2.44,0,0,0,17,6.24a2.4,2.4,0,0,0-1.64.48,1.76,1.76,0,0,0-.52,1.36Z"/><path class="cls-5" d="M32.93,16h1.61v1.27a3.07,3.07,0,0,1-.92,2.35,4,4,0,0,1-2.85.87,4.13,4.13,0,0,1-2.88-.87A3,3,0,0,1,27,17.28V8.08a3.1,3.1,0,0,1,.92-2.36,4.06,4.06,0,0,1,2.85-.86,4.18,4.18,0,0,1,2.88.86,3,3,0,0,1,.94,2.36v2.18H32.93V8.08a1.73,1.73,0,0,0-.54-1.36,2.47,2.47,0,0,0-1.67-.48,2.37,2.37,0,0,0-1.63.48,1.76,1.76,0,0,0-.53,1.36v9.2a1.73,1.73,0,0,0,.54,1.34,2.42,2.42,0,0,0,1.67.5,2.32,2.32,0,0,0,1.63-.5,1.76,1.76,0,0,0,.53-1.34Z"/><path class="cls-6" d="M40.75,20.15V5.2h1.61v6.67h4.53V5.2H48.5v15H46.89v-6.9H42.36v6.9Z"/><path class="cls-7" d="M60.11,5V6.41H56.66v11A1.77,1.77,0,0,0,57,18.5a1.09,1.09,0,0,0,1,.44,1,1,0,0,0,.93-.44,1.82,1.82,0,0,0,.31-1.07V14.69h1.62v2.65a2.94,2.94,0,0,1-.8,2.24,2.87,2.87,0,0,1-2.06.75,3,3,0,0,1-2.08-.75,2.91,2.91,0,0,1-.81-2.24V5Z"/><path class="cls-8" d="M66.21,20.15V5.2h1.61v15Z"/><path class="cls-9" d="M94,16h1.61v1.27a3.07,3.07,0,0,1-.92,2.35,4,4,0,0,1-2.85.87A4.13,4.13,0,0,1,89,19.63a3,3,0,0,1-.94-2.35V8.08A3.1,3.1,0,0,1,89,5.72a4.06,4.06,0,0,1,2.85-.86,4.18,4.18,0,0,1,2.88.86,3,3,0,0,1,.94,2.36v5.06h-6v4.14a1.73,1.73,0,0,0,.54,1.34,2.42,2.42,0,0,0,1.67.5,2.32,2.32,0,0,0,1.63-.5A1.76,1.76,0,0,0,94,17.28Zm-4.37-4.25H94V8.08a1.73,1.73,0,0,0-.54-1.36,2.47,2.47,0,0,0-1.67-.48,2.37,2.37,0,0,0-1.63.48,1.76,1.76,0,0,0-.53,1.36Z"/><path class="cls-10" d="M74.93,20.15V5.2h3.7a3.83,3.83,0,0,1,2.75.87,3.07,3.07,0,0,1,.91,2.35v8.51a3.1,3.1,0,0,1-.9,2.36,3.81,3.81,0,0,1-2.76.86Z"/></svg>