<svg id="Layer_1" data-name="Layer 1" xmlns="http://www.w3.org/2000/svg" xmlns:xlink="http://www.w3.org/1999/xlink" viewBox="0 0 42.55 31.94"><defs><style>.cls-1{fill:#939598;}.cls-2{fill:url(#radial-gradient);}.cls-3{fill:url(#radial-gradient-2);}.cls-4{fill:url(#linear-gradient);}.cls-5{fill:url(#linear-gradient-2);}.cls-6{fill:#231f20;}.cls-7{fill:url(#radial-gradient-3);}.cls-8{fill:#1e1e1e;}.cls-9{fill:url(#radial-gradient-4);}.cls-10{fill:url(#radial-gradient-5);}.cls-11{fill:url(#radial-gradient-6);}</style><radialGradient id="radial-gradient" cx="-1492.68" cy="-112.15" r="0.42" gradientTransform="translate(38303.28 2339.39) rotate(-0.82) scale(25.62)" gradientUnits="userSpaceOnUse"><stop offset="0" stop-color="#e6e7e8"/><stop offset="0.05" stop-color="#dddedf"/><stop offset="1" stop-color="#414142"/></radialGradient><radialGradient id="radial-gradient-2" cx="-1492.67" cy="-112.14" r="0.42" gradientTransform="translate(38257.85 2336.02) rotate(-0.82) scale(25.59)" gradientUnits="userSpaceOnUse"><stop offset="0" stop-color="#58595b"/><stop offset="1" stop-color="#333133"/></radialGradient><linearGradient id="linear-gradient" x1="-1487.32" y1="-105.4" x2="-1486.89" y2="-105.4" gradientTransform="translate(13296.99 759.2) rotate(-0.82) scale(8.92)" gradientUnits="userSpaceOnUse"><stop offset="0" stop-color="#d1d3d4"/><stop offset="0.6" stop-color="#6a696a"/><stop offset="1" stop-color="#231f20"/></linearGradient><linearGradient id="linear-gradient-2" x1="-1484.85" y1="-102.06" x2="-1484.43" y2="-102.06" gradientTransform="translate(10046.36 554) rotate(-0.82) scale(6.75)" gradientUnits="userSpaceOnUse"><stop offset="0" stop-color="#231f20"/><stop offset="0.4" stop-color="#6a696a"/><stop offset="1" stop-color="#d1d3d4"/></linearGradient><radialGradient id="radial-gradient-3" cx="-1459.56" cy="-94.96" r="0.42" gradientTransform="matrix(1.9, -0.03, 0.06, 4.44, 2805.75, 390.59)" gradientUnits="userSpaceOnUse"><stop offset="0" stop-color="#4d4d4f"/><stop offset="1" stop-color="#333133"/></radialGradient><radialGradient id="radial-gradient-4" cx="-1490.57" cy="-110.99" r="0.42" gradientTransform="translate(21718.61 1331.46) rotate(-0.82) scale(14.54)" gradientUnits="userSpaceOnUse"><stop offset="0" stop-color="#a7a9ac"/><stop offset="1" stop-color="#414142"/></radialGradient><radialGradient id="radial-gradient-5" cx="-1492.17" cy="-112.14" r="0.42" gradientTransform="translate(35779.14 2190.48) rotate(-0.82) scale(23.94)" gradientUnits="userSpaceOnUse"><stop offset="0" stop-color="#808285"/><stop offset="0.12" stop-color="#6e6f71"/><stop offset="0.37" stop-color="#4d4c4e"/><stop offset="0.61" stop-color="#363335"/><stop offset="0.83" stop-color="#282425"/><stop offset="1" stop-color="#231f20"/></radialGradient><radialGradient id="radial-gradient-6" cx="-1497.8" cy="-112.09" r="0.42" gradientTransform="matrix(-24.29, 0.35, 0.34, 23.94, -36315.4, 3222.33)" xlink:href="#radial-gradient-5"/></defs><path class="cls-1" d="M17.78,4.4h0"/><path class="cls-2" d="M20.79,2c-5.16.12-5.86,2.29-5.86,2.29s-2.09,5.84-1.49,10.57c.41,3.32,1.72,5.48.8,10.14-.52,2.65,1.85,7,7.12,6.89h0c5.29-.07,7.75-4.14,7.37-6.76a24.76,24.76,0,0,1,.18-8.23c.49-2.49,0-9.48-1.16-12.11,0,0-1.44-2.73-6.45-2.79l.07,14h-.28L20.79,2"/><path class="cls-3" d="M21,2h-.21l.33,14h.28L21.33,2A1.82,1.82,0,0,0,21,2"/><path class="cls-4" d="M22.94,8.76c0,2.84-.77,5.15-1.81,5.16s-1.92-2.27-2-5.11S19.94,3.66,21,3.64,22.9,5.92,22.94,8.76Z"/><path class="cls-5" d="M22.48,8.76c0,2.15-.58,3.9-1.37,3.91S19.66,11,19.63,8.8,20.21,4.91,21,4.89,22.45,6.62,22.48,8.76Z"/><path class="cls-6" d="M22.29,9.93A1.08,1.08,0,0,1,21.19,11a1.09,1.09,0,0,1-1.14-1l0-2.6a1.12,1.12,0,0,1,2.23,0Z"/><path class="cls-7" d="M22.11,9.83a.94.94,0,1,1-1.88,0l0-2.33a.93.93,0,0,1,.93-.95.92.92,0,0,1,.94.92Z"/><path class="cls-8" d="M22,7.49a.2.2,0,0,1-.19.21l-1.26,0a.2.2,0,0,1-.2-.2.21.21,0,0,1,.19-.21h1.27A.18.18,0,0,1,22,7.49Z"/><path class="cls-8" d="M22,8.12a.21.21,0,0,1-.19.21l-1.27,0a.2.2,0,0,1-.19-.21.19.19,0,0,1,.19-.2l1.27,0A.2.2,0,0,1,22,8.12Z"/><path class="cls-8" d="M22,8.75a.19.19,0,0,1-.19.2L20.52,9a.2.2,0,0,1-.19-.2.19.19,0,0,1,.19-.2l1.27,0A.2.2,0,0,1,22,8.75Z"/><path class="cls-8" d="M22,9.37a.2.2,0,0,1-.19.21l-1.27,0a.2.2,0,0,1-.19-.2.21.21,0,0,1,.19-.21H21.8A.19.19,0,0,1,22,9.37Z"/><path class="cls-8" d="M22,10a.21.21,0,0,1-.19.21l-1.27,0a.2.2,0,0,1-.19-.2.2.2,0,0,1,.19-.21l1.26,0A.2.2,0,0,1,22,10Z"/><path class="cls-9" d="M14.28,22.94s.61,7.35,7.34,7.26c6.24-.09,7-3.84,7-7.1,0,0,2.35,8.7-7,8.83C12.09,32.07,14.29,23.52,14.28,22.94Z"/><path class="cls-10" d="M18.31,2.3S14.53,5.43,14.59,10s1.31,6,3.14,10.38S17.3,29,16.22,30.48c0,0-2.1-1.2-2.51-6.12-.36-4.41-.22-8-.36-9.47S13,7.16,15.14,4A4.76,4.76,0,0,1,18.31,2.3Z"/><path class="cls-11" d="M23.79,2.3s4,2.94,4.06,7.49S26.7,15.85,25,20.26s.72,8.67,1.85,10.11c0,0,2.11-1.16,2.35-6.24.2-4.42,0-8,.08-9.47s.19-7.74-2.13-10.87A5.3,5.3,0,0,0,23.79,2.3Z"/><path class="cls-8" d="M20.09,31.87a2.41,2.41,0,0,1,2.89,0A13.5,13.5,0,0,1,20.09,31.87Z"/></svg>